<svg width="18" height="20" xmlns="http://www.w3.org/2000/svg"><g fill-rule="nonzero" fill="none"><path d="M6.044 13.895a5.312 5.312 0 01-1.682-3.926c0-1.557.623-2.928 1.62-3.925a2.182 2.182 0 000-3.116 2.182 2.182 0 00-3.116 0C1.122 4.735 0 7.228 0 9.97a9.939 9.939 0 002.928 7.04 2.182 2.182 0 003.116 0 2.3 2.3 0 000-3.114z" fill="#FAE501"/><path d="M6.044 6.044a5.312 5.312 0 013.925-1.682c1.558 0 2.929.623 3.926 1.62a2.182 2.182 0 003.115 0 2.182 2.182 0 000-3.116C15.203 1.122 12.71 0 9.97 0a9.939 9.939 0 00-7.042 2.928 2.182 2.182 0 000 3.116 2.3 2.3 0 003.116 0z" fill="#4FB5E1"/><path d="M13.895 13.895a5.312 5.312 0 01-3.926 1.682 5.504 5.504 0 01-3.925-1.62 2.182 2.182 0 00-3.116 0 2.182 2.182 0 000 3.115c1.807 1.745 4.3 2.866 7.041 2.866a9.939 9.939 0 007.04-2.928 2.182 2.182 0 000-3.115 2.3 2.3 0 00-3.114 0z" fill="#F05751"/><circle fill="#0681B6" cx="4.486" cy="4.486" r="2.181"/><circle fill="#CD4739" cx="4.486" cy="15.452" r="2.181"/></g></svg>