<svg width="87" height="20" xmlns="http://www.w3.org/2000/svg"><g fill="#000" fill-rule="evenodd"><path d="M83.931.518H54.61a2.973 2.973 0 00-2.973 2.973v13.052a2.973 2.973 0 002.973 2.973H83.93a2.973 2.973 0 002.973-2.973V3.49A2.973 2.973 0 0083.931.518zm-21.799 14.42a8.74 8.74 0 01-1.255.085c-.795 0-1.492-.13-2.09-.386a4.162 4.162 0 01-1.508-1.08 4.601 4.601 0 01-.918-1.648 6.698 6.698 0 01-.309-2.076c0-.748.107-1.442.323-2.083.215-.64.526-1.193.932-1.661a4.207 4.207 0 011.5-1.094c.595-.262 1.27-.393 2.027-.393.449 0 .863.028 1.24.084.379.057.789.173 1.228.35a3.08 3.08 0 01-.169.82c-.094.267-.196.536-.309.807a6.288 6.288 0 00-.87-.239 4.98 4.98 0 00-.897-.07c-.898 0-1.587.292-2.07.876-.48.585-.722 1.452-.722 2.602 0 2.282.968 3.422 2.903 3.422.346 0 .65-.024.911-.07.262-.047.557-.127.884-.239a5.808 5.808 0 01.477 1.64c-.483.181-.92.298-1.308.353zm11.438 0a5.19 5.19 0 01-.94-.084l-.252-6.844-2.048 4.74c-.13.02-.266.035-.407.05a4.262 4.262 0 01-.785.006 2.936 2.936 0 01-.379-.056l-1.907-4.838-.196 6.942a4.752 4.752 0 01-1.795 0l.392-10.084a6.87 6.87 0 012.16 0l2.314 5.779 2.384-5.779a5.07 5.07 0 01.968-.084c.355 0 .697.028 1.024.084l.477 10.084a6.46 6.46 0 01-1.01.084zm8.841-1.822c-.173.393-.423.73-.75 1.01s-.731.5-1.213.658c-.482.16-1.036.239-1.662.239-.309 0-.584-.01-.828-.028a6.174 6.174 0 01-1.346-.252 8.558 8.558 0 01-.673-.239c.028-.271.08-.554.154-.848.075-.295.164-.592.267-.89.393.158.762.277 1.108.357.346.079.715.119 1.108.119.588 0 1.052-.11 1.388-.33.337-.22.505-.554.505-1.002 0-.225-.04-.412-.12-.561a1.24 1.24 0 00-.308-.38 1.846 1.846 0 00-.428-.259 12.79 12.79 0 00-.49-.203l-.856-.323a6.135 6.135 0 01-.856-.399 2.53 2.53 0 01-.645-.519 2.15 2.15 0 01-.414-.723 3.07 3.07 0 01-.147-1.01c0-.476.082-.896.245-1.262.164-.364.395-.67.694-.918.3-.248.66-.435 1.08-.56a4.93 4.93 0 011.417-.19c.476 0 .923.041 1.339.126.416.084.853.206 1.311.364a5.028 5.028 0 01-.448 1.6c-.14-.057-.283-.113-.428-.17a3.303 3.303 0 00-.463-.14 5.11 5.11 0 00-.554-.09 6.247 6.247 0 00-.7-.036c-.16 0-.321.014-.484.042-.164.028-.31.08-.442.154a.877.877 0 00-.322.33c-.085.145-.127.334-.127.567 0 .187.033.344.099.47a.983.983 0 00.266.323c.112.088.238.163.378.224.14.06.281.12.421.176l.842.322c.354.14.678.285.968.435.29.15.534.335.736.554.2.22.357.486.47.799.112.313.168.7.168 1.157 0 .478-.087.913-.26 1.306zM6.363 2.778c.117-.021.25-.037.4-.048.15-.01.279-.015.386-.015a5.5 5.5 0 01.393.015c.144.01.275.027.393.048v11.54a10.785 10.785 0 01-3.05.417 6.116 6.116 0 01-1.645-.217 3.48 3.48 0 01-1.357-.714A3.453 3.453 0 01.97 12.52c-.225-.524-.337-1.172-.337-1.942 0-.663.1-1.268.297-1.814.198-.546.479-1.014.842-1.404.364-.39.8-.693 1.308-.907a4.323 4.323 0 011.693-.32c.278 0 .56.02.843.064.283.042.532.096.746.16l.002-3.579zm0 4.927a3.454 3.454 0 00-.69-.192 4.713 4.713 0 00-.803-.064c-.44 0-.819.08-1.14.24-.32.161-.586.38-.794.659a2.855 2.855 0 00-.466.987 4.8 4.8 0 00-.152 1.243c.01 1.017.252 1.745.723 2.183.47.439 1.113.658 1.926.658.278 0 .535-.013.77-.04a3.8 3.8 0 00.626-.12V7.705zM11.017 7.56H9.973a2.047 2.047 0 01-.049-.296 3.549 3.549 0 010-.657c.01-.112.027-.211.049-.297h2.6v8.699c0 .481-.064.882-.192 1.203-.128.321-.308.581-.538.778-.23.199-.5.34-.81.426a3.81 3.81 0 01-1.011.128c-.578 0-1.065-.07-1.461-.208.01-.204.037-.413.08-.626.042-.214.102-.407.176-.578.257.085.557.129.9.129.139 0 .283-.01.433-.032a.948.948 0 00.417-.169 1.01 1.01 0 00.32-.41c.086-.181.129-.433.129-.754V7.56zm-.386-3.08a6.431 6.431 0 01-.064-.803 5.337 5.337 0 01.064-.787c.14-.022.289-.04.45-.057.16-.016.299-.024.417-.024s.254.008.41.024c.155.016.296.035.425.057a5.337 5.337 0 01.064.787c0 .117-.005.243-.016.377-.01.134-.027.276-.048.425-.129.022-.27.04-.425.057a4.153 4.153 0 01-.41.024 4.15 4.15 0 01-.417-.024 7.812 7.812 0 01-.45-.057zM19.491 9.118c0-.631-.16-1.07-.481-1.316-.321-.246-.787-.37-1.397-.37-.375 0-.725.03-1.051.088-.327.06-.645.137-.955.233-.204-.353-.305-.776-.305-1.268a7.438 7.438 0 011.203-.273 8.73 8.73 0 011.268-.096c1.07 0 1.884.243 2.44.73.557.487.835 1.265.835 2.336v5.152c-.375.086-.83.174-1.365.264-.534.09-1.08.137-1.637.137-.524 0-.997-.049-1.42-.145a2.906 2.906 0 01-1.076-.465 2.15 2.15 0 01-.681-.818c-.161-.331-.241-.733-.241-1.204 0-.46.094-.864.28-1.212.188-.348.442-.636.763-.867.321-.23.69-.4 1.108-.514a5.012 5.012 0 011.317-.168c.342 0 .623.008.842.024.22.016.404.035.554.057v-.305zm0 1.557c-.16-.022-.364-.043-.61-.065a7.273 7.273 0 00-.625-.032c-.664 0-1.17.124-1.517.37-.348.246-.522.62-.522 1.123 0 .321.06.572.177.755.117.182.264.321.44.417.177.097.372.155.587.177.214.022.417.032.61.032.246 0 .5-.013.762-.04.262-.027.495-.067.698-.12v-2.617z" fill-rule="nonzero"/><path d="M23.44 6.31a3.864 3.864 0 01.69-.064 3.23 3.23 0 01.657.064c.032.16.064.377.096.65.033.272.05.5.05.68a3.324 3.324 0 01.978-1.035 2.947 2.947 0 011.653-.49c.942 0 1.638.271 2.086.811.45.54.674 1.34.674 2.4v5.216a3.604 3.604 0 01-.4.048 5.047 5.047 0 01-1.187-.048V9.759c0-.76-.119-1.318-.354-1.677s-.61-.538-1.123-.538c-.3 0-.583.054-.85.161a1.887 1.887 0 00-.707.498 2.481 2.481 0 00-.49.874c-.123.36-.183.79-.183 1.293v4.173a3.604 3.604 0 01-.393.047c-.145.01-.276.017-.394.017a5.364 5.364 0 01-.801-.064l-.003-8.233z"/><path d="M37.13 13.483c.952.022 1.642.225 2.07.61.428.385.642.915.642 1.589 0 .438-.112.832-.338 1.18a2.997 2.997 0 01-.931.899 4.724 4.724 0 01-1.404.578c-.54.134-1.126.201-1.758.201-1.101 0-1.941-.171-2.52-.514-.577-.343-.867-.883-.867-1.62 0-.44.118-.833.353-1.18.236-.349.54-.624.915-.828a1.92 1.92 0 01-.537-.521c-.145-.21-.217-.468-.217-.779 0-.395.088-.738.265-1.027.176-.288.414-.546.714-.77a2.763 2.763 0 01-.85-.955 2.711 2.711 0 01-.322-1.324c0-.406.075-.786.225-1.14.15-.352.366-.66.65-.922a3.053 3.053 0 011.05-.618c.418-.15.893-.225 1.43-.225.48 0 .917.07 1.307.21.39.138.724.315 1.003.529.214-.172.503-.313.867-.426a4.07 4.07 0 011.204-.168c.042.203.064.428.064.674a4.584 4.584 0 01-.064.754h-1.444c.117.182.208.38.273.594.064.214.096.46.096.739 0 .439-.08.834-.24 1.187-.162.353-.389.656-.683.907a3.077 3.077 0 01-1.052.578c-.407.134-.85.2-1.332.2-.439 0-.835-.047-1.188-.144-.15.086-.297.217-.441.393a.884.884 0 00-.217.57c0 .192.07.36.209.505.139.144.45.223.931.233l2.137.031zm-2.167 1.268c-.482-.01-.843.118-1.084.386-.24.266-.36.587-.36.962 0 .236.048.428.144.578.096.15.233.27.41.361.176.09.384.155.625.192.241.038.505.057.795.057.856 0 1.524-.142 2.006-.425.482-.284.723-.64.723-1.068 0-.321-.102-.567-.305-.738-.204-.172-.578-.263-1.124-.273l-1.83-.032zm.739-4.012c.577 0 1.005-.16 1.283-.482.278-.32.418-.733.418-1.235 0-.514-.14-.933-.418-1.26-.278-.326-.706-.49-1.283-.49-.578 0-1.004.164-1.276.49-.273.327-.41.746-.41 1.26 0 .503.137.915.41 1.235.272.321.697.482 1.276.482zM44.77 14.736c-.642 0-1.204-.11-1.686-.329a3.341 3.341 0 01-1.203-.907c-.321-.385-.56-.84-.714-1.364a5.983 5.983 0 01-.233-1.701c0-.61.077-1.177.233-1.701.155-.524.393-.98.714-1.364.32-.386.722-.69 1.203-.915.482-.225 1.044-.338 1.686-.338.641 0 1.203.113 1.685.338.482.224.882.53 1.203.915.321.385.56.84.714 1.364.155.524.233 1.091.233 1.7 0 .61-.077 1.178-.233 1.702-.155.524-.393.979-.714 1.364-.32.385-.722.688-1.203.907-.482.218-1.044.329-1.685.329zm0-1.268c.738 0 1.284-.268 1.637-.803s.53-1.278.53-2.231c0-.952-.177-1.693-.53-2.223-.353-.53-.9-.794-1.637-.794-.739 0-1.282.264-1.63.794-.347.53-.52 1.27-.52 2.223 0 .952.173 1.696.52 2.231.348.535.891.803 1.63.803z" fill-rule="nonzero"/></g></svg>