<svg viewBox="0 0 182 30" xmlns="http://www.w3.org/2000/svg"><defs><linearGradient x1="38.001%" y1="62.053%" x2="85.099%" y2="17.713%" id="a"><stop stop-color="#FE5000" offset="0%"/><stop stop-color="#E40038" offset="100%"/></linearGradient></defs><g fill="none"><path d="M175.006 10.216c0-.621.324-.946.918-.946h.891c.621 0 .946.352.946.946v1.081c0 .433-.054.784-.054.784h.054c.459-1.378 1.7-2.919 3.348-2.919.621 0 .864.324.864.946V11c0 .622-.351.946-.972.946-2.106 0-3.105 2.081-3.105 4.19v3.702c0 .621-.324.946-.919.946h-.999c-.62 0-.918-.325-.918-.946v-9.622h-.054zm-12.718 0c0-.621.35-.946.945-.946h.972c.621 0 .945.352.945.946v5.865c0 1.405.351 2.351 1.782 2.351 2.08 0 3.214-1.837 3.214-3.891v-4.325c0-.621.324-.946.945-.946h.972c.621 0 .945.352.945.946v9.622c0 .621-.351.946-.945.946h-.864c-.621 0-.918-.325-.918-.946v-.676c0-.27.054-.513.054-.513h-.054c-.54 1.162-2.026 2.405-3.997 2.405-2.457 0-3.996-1.243-3.996-4.378v-6.46zM154.349 9c3.483 0 6.346 2.514 6.346 6.027 0 3.54-2.836 6.027-6.346 6.027-3.483 0-6.319-2.486-6.319-6.027 0-3.513 2.836-6.027 6.319-6.027zm0 9.622c1.863 0 3.43-1.433 3.43-3.595 0-2.135-1.567-3.595-3.43-3.595-1.863 0-3.402 1.46-3.402 3.595 0 2.162 1.539 3.595 3.402 3.595zm-18.794-12.92c0-.62.35-.945.945-.945h.972c.621 0 .945.351.945.946v4.648c0 .568-.08.973-.08.973h.053c.567-1.108 1.998-2.324 3.997-2.324 2.538 0 4.023 1.324 4.023 4.378v6.46c0 .621-.35.946-.945.946h-.972c-.621 0-.945-.325-.945-.946v-5.865c0-1.405-.351-2.351-1.81-2.351-1.998 0-3.32 1.621-3.32 3.81v4.406c0 .621-.325.946-.946.946h-.972c-.621 0-.945-.325-.945-.946V5.703zm-6.616 4.19c0-.243.135-.378.378-.378h.19c.242 0 .377.135.377.378v1.757c0 .513-.08.919-.08.919h.053c.567-1.73 1.89-3.136 3.78-3.136.325 0 .487.136.487.379v.216c0 .243-.216.378-.486.378-2.539 0-3.727 3-3.727 5.514v4.486c0 .244-.135.379-.378.379h-.189c-.243 0-.378-.135-.378-.379V9.892h-.027zm-7.02-.649c2.943 0 4.59 2.135 4.59 5.379 0 .243-.19.378-.405.378h-8.695c0 3.27 2.214 5.135 4.833 5.135a4.98 4.98 0 003.187-1.162c.216-.162.378-.135.513.054l.135.19c.108.161.08.35-.081.486-.54.46-1.89 1.324-3.754 1.324-3.186 0-5.805-2.297-5.805-5.892 0-3.784 2.592-5.892 5.481-5.892zm3.618 4.865c-.108-2.757-1.755-4-3.619-4-2.079 0-3.996 1.351-4.401 4h8.02zm-20.873-4.216c0-.243.135-.378.378-.378h.189c.243 0 .378.135.378.378v.973c0 .513-.081.892-.081.892h.054s.918-2.54 4.05-2.54c3.024 0 4.86 2.405 4.86 5.918 0 3.595-2.106 5.92-4.995 5.92-2.943 0-3.942-2.541-3.942-2.541h-.054s.08.405.08 1v5.405c0 .243-.134.378-.377.378h-.162c-.243 0-.378-.135-.378-.378V9.892zm4.86 10.243c2.214 0 4.023-1.838 4.023-5 0-3.054-1.62-5-3.915-5-2.08 0-4.023 1.46-4.023 5-.027 2.54 1.377 5 3.915 5zM97.697 9c3.267 0 5.103 2.324 5.103 5.486 0 .487-.432.973-.999.973h-7.02c.188 2.082 1.7 3.163 3.456 3.163 1.053 0 1.944-.406 2.484-.757.567-.27.972-.216 1.27.324l.27.46c.27.513.188.973-.325 1.27a7.224 7.224 0 01-3.915 1.162c-3.808 0-6.184-2.757-6.184-6.027C91.864 11.486 94.24 9 97.697 9zm2.268 4.73c-.054-1.595-1.026-2.54-2.322-2.54-1.458 0-2.512 1.026-2.782 2.54h5.104zM86.869 5.703c0-.622.324-.946.918-.946h.999c.62 0 .918.351.918.946v11.27c0 1.135.486 1.324.891 1.378.405.054.702.298.702.811v.757c0 .595-.27.973-.945.973-1.54 0-3.483-.406-3.483-3.703V5.703zm-13.232 4.513c0-.621.351-.946.945-.946h.73c.62 0 .917.352.917.784v.514c0 .243-.027.459-.027.459h.054S77.282 9 79.956 9c3.105 0 5.13 2.46 5.13 6.027 0 3.649-2.268 6.027-5.265 6.027-2.403 0-3.322-1.757-3.322-1.757h-.054s.081.406.081 1v4.054c0 .622-.324.946-.945.946h-.972c-.62 0-.945-.324-.945-.946V10.216h-.027zm5.644 8.433c1.566 0 2.889-1.298 2.889-3.568 0-2.19-1.161-3.622-2.835-3.622-1.485 0-2.917 1.082-2.917 3.622 0 1.81 1 3.568 2.863 3.568zM65.833 9c3.484 0 6.346 2.514 6.346 6.027 0 3.54-2.835 6.027-6.346 6.027-3.483 0-6.318-2.486-6.318-6.027 0-3.513 2.808-6.027 6.318-6.027zm0 9.622c1.863 0 3.43-1.433 3.43-3.595 0-2.135-1.567-3.595-3.43-3.595-1.863 0-3.402 1.46-3.402 3.595-.027 2.162 1.512 3.595 3.402 3.595zM53.412 9c3.267 0 5.103 2.324 5.103 5.486 0 .487-.432.973-.999.973h-7.02c.189 2.082 1.7 3.163 3.456 3.163 1.053 0 1.944-.406 2.484-.757.567-.27.972-.216 1.27.324l.27.46c.27.513.188.973-.325 1.27a7.224 7.224 0 01-3.915 1.162c-3.808 0-6.184-2.757-6.184-6.027C47.58 11.486 49.955 9 53.412 9zm2.268 4.73c-.054-1.595-1.026-2.54-2.322-2.54-1.458 0-2.511 1.026-2.781 2.54h5.103zm-20.738-3.514c0-.621.35-.946.945-.946h.729c.621 0 .918.352.918.784v.514c0 .243-.027.459-.027.459h.054S38.587 9 41.261 9c3.105 0 5.13 2.46 5.13 6.027 0 3.649-2.268 6.027-5.265 6.027-2.404 0-3.322-1.757-3.322-1.757h-.054s.081.406.081 1v4.054c0 .622-.324.946-.945.946h-.972c-.621 0-.945-.324-.945-.946V10.216h-.027zm5.643 8.433c1.567 0 2.89-1.298 2.89-3.568 0-2.19-1.161-3.622-2.836-3.622-1.485 0-2.916 1.082-2.916 3.622 0 1.81 1 3.568 2.862 3.568z" fill="#28334A"/><path d="M15 2.66C8.2 2.66 2.66 8.172 2.66 15S8.172 27.34 15 27.34 27.34 21.828 27.34 15c0-6.8-5.512-12.34-12.34-12.34zM30 15c0 8.282-6.718 15-15 15S0 23.282 0 15 6.718 0 15 0s15 6.718 15 15zM8.583 8.473a2.82 2.82 0 012.825 2.825 2.82 2.82 0 01-2.825 2.824c-1.59-.027-2.824-1.288-2.824-2.824a2.82 2.82 0 012.824-2.825zm12.67 0a2.82 2.82 0 012.824 2.825 2.82 2.82 0 01-2.825 2.824 2.838 2.838 0 01-2.824-2.824 2.82 2.82 0 012.824-2.825z" fill="url(#a)"/></g></svg>