<?xml version="1.0" encoding="UTF-8"?>
<svg width="27px" height="18px" viewBox="0 0 27 18" version="1.1" xmlns="http://www.w3.org/2000/svg" xmlns:xlink="http://www.w3.org/1999/xlink">
    <!-- Generator: Sketch 60 (88103) - https://sketch.com -->
    <title>Backbase</title>
    <desc>Created with Sketch.</desc>
    <g id="Symbols" stroke="none" stroke-width="1" fill="none" fill-rule="evenodd">
        <g id="Icons---Mobiquity" transform="translate(-235.000000, -2.000000)" fill="#CC2229" fill-rule="nonzero">
            <g id="Backbase" transform="translate(235.000000, 0.000000)">
                <path d="M23.9708309,2.10477835 L8.5050854,2.10477835 L10.7238534,5.97582038 L11.6150451,5.97582038 L11.7451545,5.9781232 L22.130877,5.97927461 C22.3991556,5.97927461 23.050854,6.11168682 23.0543082,6.97985032 L23.0543082,14.9936672 C23.050854,15.8618307 22.400307,15.9942429 22.130877,15.9942429 L9.03703704,16.025331 L9.03127998,12.7403569 L19.8084821,12.7403569 L19.8084821,9.054692 L8.79639225,9.07196315 L4.6374976,2.07599309 L0.161965074,2.07599309 L5.17981194,10.8117444 L5.17405488,19.8388025 L8.91613894,19.8388025 L8.91729035,19.8445596 L24.2114757,19.8445596 C25.9339858,19.8445596 26.9357129,18.3419689 26.9357129,15.337939 L26.9357129,5.99309154 C26.9345615,3.41393207 25.9328344,2.10477835 23.9708309,2.10477835 L23.9708309,2.10477835 Z" id="Path"></path>
            </g>
        </g>
    </g>
</svg>