<svg width="20" height="20" xmlns="http://www.w3.org/2000/svg"><g fill-rule="nonzero" fill="none"><path d="M0 17.421A2.579 2.579 0 002.579 20H17.42A2.579 2.579 0 0020 17.421V2.58A2.579 2.579 0 0017.421 0H2.58A2.579 2.579 0 000 2.579V17.42z" fill="#563D7C"/><path d="M8.294 8.847V6.014h2.493c.237 0 .466.02.687.06.22.04.415.11.585.212.17.102.305.243.407.424.101.18.152.412.152.695 0 .509-.152.876-.458 1.103-.305.226-.695.339-1.17.339H8.294zM5.63 3.945v12.11h5.868c.543 0 1.071-.068 1.586-.204a4.241 4.241 0 001.374-.627c.4-.283.72-.648.958-1.094.237-.447.356-.975.356-1.586 0-.758-.184-1.405-.551-1.942-.368-.537-.925-.913-1.67-1.128.542-.26.952-.593 1.229-1 .277-.407.415-.916.415-1.527 0-.565-.093-1.04-.28-1.424a2.327 2.327 0 00-.788-.925 3.404 3.404 0 00-1.221-.5c-.475-.102-1.001-.153-1.578-.153H5.631zm2.663 10.04v-3.324h2.9c.576 0 1.04.133 1.39.399.35.266.526.71.526 1.331 0 .317-.054.577-.16.78a1.28 1.28 0 01-.433.484c-.181.119-.39.203-.628.254a3.56 3.56 0 01-.746.077h-2.85z" fill="#FFF"/></g></svg>