<svg xmlns="http://www.w3.org/2000/svg" width="704.06" height="93.82"><path d="M342.567 38.509c-.615-1.215-2.466-3.165-3.178-3.21-.85-.055-1.743.004-2.653.17-2.75.504-5.331 1.892-8.182 3.518-4.174 2.384-10.103 5.964-11.825 6.966-2.63-1.965-5.988-2.334-9.861-1.128-4.854 1.522-24.002 8.794-25.81 9.489-.487.188-.991.383-1.465.469-.566.103-1.763.626-2.236-.238.677-2.06 6.428-8.533 10.835-11.57 2.587-1.781 7.944-5.953 7.788-6.034-1.105-1.754-2.917-1.697-4.307-1.444-1.708.058-31.762 8.692-33.823 9.117-1.026.212-18.207 4.433-19.135 4.27 1.618-2.22 2.253-2.52 3.654-3.711.249-.211 23.454-26.937 23.688-27.151 1.593-1.461 3.572-3.275 3.286-5.95.074-.604-.122-1.054-.57-1.305-.541-.301-1.107-.265-1.721-.265-4.12-.005-78.861 46.869-85.06 49.75-.017.002-6.565 3.072-6.58 3.073.042-.27.04-1.676.364-2.515 1.662-4.295 3-7.933 1.129-9.221-1.576-1.084-4.27-.912-6.583-.525-1.53.252-28.07 5.348-32.472 6.09-.904.152-2.38.578-2.703.602 1.652-2.404 16.725-17.958 18.967-20.318 4.197-4.42 10.199-10.241 13.997-17.05 1.022-1.831 2.42-4.42 2.21-6.734-.101-1.108-.962-3.062-2.333-4.018-2.087-1.455-5.504-.948-5.504-.948-7.28.486-43.026 17.077-48.657 19.392-18.33 7.538-92.963 48.548-100.181 52.685-2.84 1.626-5.864 3.34-8.481 5.282l-1.508 1.115c-1.514 1.112-2.448 2.333-2.626 3.437-.113.7.089 1.293.585 1.713.402.34 1.113.512 2.114.508 3-.013 7.968-1.543 9.347-2.63.1-.08 52.998-30.028 58.175-32.511 4.966-2.383 82.094-41.556 89.029-41.213 3.56.176-1.997 5.749-4.73 8.753-6.362 6.99-12.961 13.985-19.34 20.75-4.727 5.01-8.584 8.777-13.336 13.91-2.432 2.627-3.157 3.517-8.966 5.826-2.904 1.154-6.402 3.185-10 5.296-1.342.79-3.264 2.956-3.921 4.396-2.051 4.493-4.863 9.76-4.533 15.823.007.127 1.14.974 1.448.938 5.257-.615 5.688-.665 8.494-3.724 4.238-4.615 8.755-9.608 13.053-14.812 2.754-3.341 5.698-5.581 9.004-6.855 2.969-1.144 6.422-2.438 9.81-3.29 5.452-1.365 30.42-5.594 30.889-5.684.887 1.893-4.264 7.238-6.483 8.747-2.206 1.5-3.656 3.328-4.863 6.989-.393 1.193 1.17 2.402 1.907 3.005.82.673 2.763 2.158 5.289 1.035 11.04-4.907 16.27-8.25 28.235-15.227 7.334-4.062 54.924-33.362 55.559-33.764-.997.898-16.574 18.754-22.386 22.645-8.643 5.788-13.322 21.595-13.325 21.685-.002.088 1.85 2.168 3.59 1.814.669-.136 2.8-1.096 3.674-1.538 5.239-2.653 6.11-5.545 9.8-9.79 3.836-4.41 9.229-7.033 15.927-9.154 2.884-.914 22.174-7.13 34.888-11.351-5.277 4.213-10.297 9.119-15.18 14.87-.691.815-1.19 1.773-1.604 2.605-.591 1.192-.723 2.392-.373 3.382.35.99 1.149 1.678 2.244 1.937 3.174.753 6.514.363 9.906-1.15 8.17-3.646 26.584-11.96 27.15-12.062.68-.124 1.206.06 1.688.6-.172.598-1.538 5.098-1.864 6.76-.272 1.39.025 2.615.84 3.44.799.814 2.86 1.983 4.187 1.74a6.156 6.156 0 002.029-.784c1.688-1.002 5.299-4.062 5.566-4.288 9.683-8.123 12.102-10.97 20.316-16.097 1.775-1.105 7.926-4.88 7.697-5.333zM369.834 38.117c-.031-.772-2.647-1.236-3.961-1.786-.247-.104-2.173-.403-3.024-.18l-.495.133c-.21.056-.417.108-.661.16-.388.102-.728.479-1.034.87-4.537 5.743-8.52 8.673-14.013 13.126a442.508 442.508 0 00-3.116 2.54c-2.837 2.335-5.77 4.75-6.99 8.48-.023.07-.005.31.027.362 2.139 3.475 6.974 3.22 9.48 2.602l.14-.035c2.842-.747 4.439-2.491 5.176-5.65.347-1.481 1.735-3.19 2.907-4.513 1.052-1.186 4.94-4.781 5.672-5.512a621.662 621.662 0 009.486-9.673c.35-.367.414-.705.406-.924zM609.533 26.992c-.56-.334-1.406-.287-1.968-.271l-.181.005c-.087.002-2.234.067-3.271.139-7.921.553-18.17 2.13-22.43 4.076-4.15 1.893-6.14 3.845-6.262 6.143-.137 2.556 1.84 5.09 4.92 6.307 1.324.522 2.696.96 4.022 1.38l.079.026c.955.302 2.972.983 3.089 1.024.583.15.993.54.975.924-.02.398-.552.904-1.987 1.134-4.022.64-8.44 1.278-13.901 2.005l-.566.073c-2.677.339-7.157.906-6.828 4.652.205 2.319 1.565 3.596 3.83 3.596h.002c.292 0 .599-.022.912-.066.083-.011 18.309-3.27 28.292-5.4 1.586-.34 6.268-2.432 6.507-5.83.155-2.204-.887-3.72-3.097-4.507-2.336-.831-5.005-1.644-8.654-2.638-.356-.096-1.192-.277-2.16-.488-1.551-.337-3.483-.756-4.182-.987-.437-.145-.78-.396-1.14-.841-.031-.04-.061-.112-.021-.235.146-.452 1.187-1.695 7.7-3.471 2.114-.576 10.807-1.857 15.8-2.57.687-.098 1.186-.39 1.483-.867.502-.803.218-1.793.146-2.011-.294-.681-.532-.96-1.11-1.302zM548.358 38.99c-18.76 5.495-50.49 11.035-49.823 10.035.313-.47 40.196-22.688 45.529-28.417 2.962-3.182 4.742-8.916.25-10.527-21.547-7.724-54.018 31.03-58.802 36.898-2.49 3.055-8.154 5.06-14.468 7.02-6.578 2.04-15.75 5.079-15.141 1.604.607-2.112 6.548-7.227 8.475-8.844 2.979-2.501 7.339-6.997 5.369-10.56-2.378-4.301-12.164-.892-17.41 1.024-.27.098-19.287 6.552-19.721 6.582 2.427-5.071 19.612-23.248 22.107-25.971 3.156-3.446 9.596-9.968 8.126-12.424-1.444-2.412-4.024-1.141-6.46 1.039-2.61 2.343-5.196 5.643-7.45 7.946-5.857 5.993-10.584 11.895-15.766 17.365-2.314 2.443-17.916 17.6-18.91 18.674-1.31 1.41-.691 3.759.537 5.51.982 1.402 2.35 1.823 4.836 1.054.854-.261 36.968-13.651 37.367-13.777-3.113 2.206-9.71 9.137-10.57 10.827-1.334 2.61-.63 4.774.928 6.604 5.736 6.743 37.888-7.064 39.413-6.623 6.527 1.9 10.206 1.509 16.456.72 4.846-.61 34.046-6.22 34.215-6.263.586-.151 2.193-.645 2 .578-.06.388-3.778 2.773-5.253 4.567-1.533 1.865-1.218 5.313.21 6.769.822.838 4.306 2.27 7.588-.176 1.943-1.45 6.636-7.241 9.162-9.993 2.052-2.235 9.053-7.556 7.17-10.512-1.542-2.244-6.563-1.334-9.964-.73zm-26.924-15.795c6.242-4.127 14.408-8.257 18.21-6.877 4.909 1.782-39.58 25.944-40.521 26.138-1.658.344 15.807-14.96 22.31-19.261zM414.676 31.454c.92-.24 3.364-.875 3.523-4.078a1.01 1.01 0 00-.28-.767c-.467-.492-1.513-.643-3.14-.475l-.385.039c-1.367.14-2.602.275-3.876.475-5.032.793-10.381 2.67-16.351 5.74-3.497 1.796-5.774 3.986-6.77 6.51-1.037 2.63-.605 5.363 1.284 8.126.42.617 1.357 2.16 1.86 2.996-2.008 1.943-4.27 2.61-6.868 3.378l-.2.057c-11.98 3.383-12.45 3.734-12.763 3.967-1.773 1.334-2.742 2.532-2.96 3.662-.242 1.257.585 2.436 2.326 3.319.378.193.925.288 1.669.288a11.82 11.82 0 001.554-.112c6.465-1.113 19.572-5.93 20.126-6.133 1.04-.381 2.139-.944 3.454-1.773 2.652-1.668 4.437-3.751 5.162-6.023.73-2.291.316-4.541-1.2-6.504-.367-.475-1.226-1.181-2.337-2.078-.345-.28-.775-.626-.877-.73-.712-.716-1.036-1.394-.91-1.906.077-.313.422-.988 1.867-1.985 2.054-1.413 3.93-2.423 5.575-3.003 2.24-.788 4.52-1.387 6.728-1.967.896-.237 2.595-.7 3.384-.915l.405-.108zM698.559 29.204c-1.043-.104-59.41 3.133-60.34 2.987 1.583-2.247 3.55-4.434 4.93-5.648.246-.215 14.633-17.502 14.864-17.72 1.569-1.487 3.518-3.332 3.189-6.003.064-.605-.14-1.052-.591-1.296-.547-.292-2.143-.635-2.742-.501l-13.402 13.22c-.982.915-12.424 14.639-18.172 18.624-8.548 5.927-13.6 21.635-12.97 21.899.082.034 1.886 2.137 3.62 1.755.665-.146 2.78-1.141 3.647-1.598 5.195-2.738 6.019-5.643 9.64-9.947 3.763-4.473 8.81-4.746 16.21-5.968 8.938-1.476 51.845-4.785 56.236-6.637.569-.24 1.268-2.628-4.12-3.167zM375.872 27.669c.244-.007.489-.034.74-.077 1.667-.293 3.512-1.08 5.196-2.212 1.074-.724 1.732-2.082 1.76-3.635.027-1.538-.57-2.853-1.6-3.52-.944-.613-2.073-.881-2.82-1.061-.213-.051-.39-.093-.51-.134a3.565 3.565 0 00-.095-.031l-1.531.17c-.631.067-1.02.11-1.404.173-3.345.554-5.29 2.543-5.075 5.192.243 2.966 2.586 5.22 5.339 5.135zM572.773 22.488c.012-1.512-.587-2.798-1.605-3.443-.935-.595-2.047-.847-2.781-1.016a6.278 6.278 0 01-.503-.127l-.094-.03-1.503.182c-.62.07-1.001.118-1.38.183-3.281.577-5.174 2.55-4.937 5.15.266 2.914 2.59 5.108 5.295 4.996.24-.01.48-.038.727-.083 1.634-.304 3.44-1.095 5.085-2.223 1.05-.721 1.684-2.063 1.696-3.59z"/></svg>