<svg width="44" height="44" xmlns="http://www.w3.org/2000/svg" xmlns:xlink="http://www.w3.org/1999/xlink"><defs><circle id="a" cx="22" cy="22" r="22"/></defs><g fill="none" fill-rule="evenodd"><path fill="#FFF" d="M-373-4350h2560V96H-373z"/><path fill="#FFF" d="M-123-4350h2000V96H-123z"/><path d="M-123-164h2000V96H-123z"/><g><mask id="b" fill="#fff"><use xlink:href="#a"/></mask><use fill="#000" xlink:href="#a"/><circle fill="#FFF" mask="url(#b)" cx="22.512" cy="20.465" r="16.372"/><g mask="url(#b)"><path d="M37.116 3.07H8.088c-1.586 0-2.972 1.141-2.972 2.709V34.87c0 1.576 1.386 2.98 2.972 2.98h29.02c1.594 0 2.79-1.413 2.79-2.98V5.779c.009-1.568-1.196-2.71-2.782-2.71zM15.898 32.062h-4.983V16.569h4.983v15.493zm-2.32-17.848h-.036c-1.594 0-2.627-1.187-2.627-2.673 0-1.513 1.06-2.673 2.69-2.673 1.631 0 2.628 1.15 2.664 2.673 0 1.486-1.033 2.673-2.69 2.673zm20.53 17.848h-4.983v-8.471c0-2.03-.724-3.416-2.527-3.416-1.377 0-2.193.933-2.555 1.84-.136.326-.172.77-.172 1.222v8.825h-4.983V16.569h4.983v2.157c.724-1.033 1.857-2.52 4.493-2.52 3.271 0 5.745 2.157 5.745 6.805v9.051z" fill="#000" fill-rule="nonzero"/></g></g></g></svg>