<?xml version="1.0" encoding="UTF-8"?>
<svg width="44px" height="44px" viewBox="0 0 44 44" version="1.1" xmlns="http://www.w3.org/2000/svg" xmlns:xlink="http://www.w3.org/1999/xlink">
    <!-- Generator: Sketch 60 (88103) - https://sketch.com -->
    <title>linkedin</title>
    <desc>Created with Sketch.</desc>
    <defs>
        <circle id="path-1" cx="22" cy="22" r="22"></circle>
    </defs>
    <g id="RomDim" stroke="none" stroke-width="1" fill="none" fill-rule="evenodd">
        <g id="PROJECT-PAGE-2560" transform="translate(-373.000000, -4350.000000)">
            <rect fill="#FFFFFF" x="0" y="0" width="2560" height="4446"></rect>
            <rect id="Rectangle" fill="#FFFFFF" x="250" y="0" width="2000" height="4446"></rect>
            <g id="Footer" transform="translate(250.000000, 4186.000000)">
                <rect id="Rectangle" x="0" y="0" width="2000" height="260"></rect>
                <g id="Contact" transform="translate(35.000000, 164.000000)">
                    <g id="linkedin" transform="translate(88.000000, 0.000000)">
                        <g>
                            <mask id="mask-2" fill="white">
                                <use xlink:href="#path-1"></use>
                            </mask>
                            <use id="Mask" fill="#000000" xlink:href="#path-1"></use>
                            <circle id="Oval" fill="#FFFFFF" mask="url(#mask-2)" cx="22.5116279" cy="20.4651163" r="16.372093"></circle>
                            <g id="logo/linkedin" mask="url(#mask-2)">
                                <g transform="translate(5.116279, 3.069767)">
                                    <g>
                                        <path d="M32.0001938,0 L2.97170543,0 C1.38619186,0 0,1.14156977 0,2.70896318 L0,31.8008721 C0,33.3773256 1.38619186,34.7816376 2.97170543,34.7816376 L31.9911337,34.7816376 C33.5857074,34.7816376 34.7816883,33.3682655 34.7816883,31.8008721 L34.7816883,2.70896318 C34.7906977,1.14156977 33.5857074,0 32.0001938,0 Z M10.7814922,28.9922481 L5.79844961,28.9922481 L5.79844961,13.4995155 L10.7814922,13.4995155 L10.7814922,28.9922481 Z M8.4621124,11.1438953 L8.42587209,11.1438953 C6.83129845,11.1438953 5.79844961,9.95702519 5.79844961,8.47117248 C5.79844961,6.95813953 6.85847868,5.79844961 8.48929264,5.79844961 C10.1201066,5.79844961 11.1167151,6.94907946 11.1529554,8.47117248 C11.1529554,9.95702519 10.1201066,11.1438953 8.4621124,11.1438953 Z M28.9922481,28.9922481 L24.0092054,28.9922481 L24.0092054,20.5210756 C24.0092054,18.4916182 23.2843992,17.1054264 21.4814438,17.1054264 C20.104312,17.1054264 19.288905,18.0386143 18.9265019,18.9446221 C18.7906008,19.2707849 18.7543605,19.7147287 18.7543605,20.1677326 L18.7543605,28.9922481 L13.7713178,28.9922481 L13.7713178,13.4995155 L18.7543605,13.4995155 L18.7543605,15.655814 C19.4791667,14.6229651 20.6116764,13.1371124 23.2481589,13.1371124 C26.5188469,13.1371124 28.9922481,15.2934109 28.9922481,19.9412306 L28.9922481,28.9922481 L28.9922481,28.9922481 Z" id="Shape" fill="#000000" fill-rule="nonzero"></path>
                                    </g>
                                </g>
                            </g>
                        </g>
                    </g>
                </g>
            </g>
        </g>
    </g>
</svg>