<svg width="44" height="44" xmlns="http://www.w3.org/2000/svg"><g fill="none" fill-rule="evenodd"><path fill="#FFF" d="M-461-4350h2560V96H-461z"/><path fill="#FFF" d="M-211-4350h2000V96H-211z"/><path d="M-211-164h2000V96H-211z"/><g><circle fill="#000" cx="22" cy="22" r="22"/><path d="M32.354 13.302H11.646c-1.34 0-2.437 1.005-2.437 2.233v13.953c0 1.228 1.097 2.233 2.437 2.233h20.708c1.34 0 2.437-1.005 2.437-2.233V15.535c0-1.228-1.097-2.233-2.437-2.233zm.39 5.253l-10.232 6.003-10.233-6.003v-2.183l10.233 6.003 10.232-6.003v2.183z" fill="#FFF" fill-rule="nonzero"/></g></g></svg>