<svg width="44" height="44" xmlns="http://www.w3.org/2000/svg"><g fill="none" fill-rule="evenodd"><path fill="#FFF" d="M-285-4350h2560V96H-285z"/><path fill="#FFF" d="M-35-4350h2000V96H-35z"/><path d="M-35-164h2000V96H-35z"/><path d="M22 0C9.845 0 0 9.994 0 22.333c0 10.495 7.094 19.206 16.666 21.661-.11-.28-.165-.67-.165-1.06v-3.798h-2.75c-1.485 0-2.861-.669-3.466-1.899-.715-1.34-.826-3.405-2.64-4.69-.55-.447-.11-.894.494-.838 1.155.334 2.09 1.117 2.97 2.288.88 1.173 1.265 1.452 2.915 1.452.77 0 1.979-.055 3.08-.224.605-1.565 1.65-2.96 2.915-3.629-7.37-.893-10.89-4.578-10.89-9.604 0-2.178.935-4.244 2.476-6.03-.495-1.732-1.155-5.305.22-6.7 3.302 0 5.28 2.178 5.775 2.735a16.708 16.708 0 015.334-.893c1.925 0 3.685.334 5.335.893.494-.559 2.475-2.735 5.774-2.735 1.32 1.34.715 4.968.165 6.7 1.54 1.731 2.42 3.852 2.42 6.03 0 5.026-3.465 8.711-10.778 9.492 2.035 1.06 3.465 4.075 3.465 6.308v5.087c0 .167-.054.334-.054.501C37.84 40.366 44 32.104 44 22.333 44 9.993 34.155 0 22 0z" fill="#000"/></g></svg>