<svg viewBox="0 0 235 179" xmlns="http://www.w3.org/2000/svg" xmlns:xlink="http://www.w3.org/1999/xlink"><defs><circle id="a" cx="30" cy="30" r="30"/></defs><a xlink:href="https://linkedin.com/in/romdim" target="_blank"><g transform="translate(0 119)"><mask id="b" fill="#fff"><use xlink:href="#a"/></mask><use xlink:href="#a"/><circle fill="#FFF" mask="url(#b)" cx="30.698" cy="27.907" r="22.326"/><g mask="url(#b)"><path d="M50.613 4.186H11.03c-2.162 0-4.052 1.557-4.052 3.694v39.671c0 2.15 1.89 4.065 4.052 4.065h39.572c2.174 0 3.805-1.928 3.805-4.065V7.88c.013-2.137-1.63-3.694-3.793-3.694zM21.68 43.721h-6.795V22.594h6.795v21.127zm-3.163-24.339h-.05c-2.174 0-3.582-1.618-3.582-3.645 0-2.063 1.445-3.644 3.67-3.644 2.223 0 3.582 1.569 3.631 3.645 0 2.026-1.408 3.644-3.669 3.644zm27.996 24.339h-6.795V32.169c0-2.767-.989-4.657-3.447-4.657-1.878 0-2.99 1.272-3.484 2.508-.186.444-.235 1.05-.235 1.668V43.72h-6.795V22.595h6.795v2.94c.988-1.408 2.533-3.435 6.128-3.435 4.46 0 7.833 2.94 7.833 9.279V43.72z"/></g></g></a><a xlink:href="mailto:rom-dim@hotmail.com?subject=Coming%20from%20site" target="_blank"><g transform="translate(175 119)"><use xlink:href="#a"/><path d="M44.12 18.14H15.88c-1.827 0-3.322 1.37-3.322 3.044v19.027c0 1.675 1.495 3.045 3.323 3.045H44.12c1.827 0 3.322-1.37 3.322-3.045V21.184c0-1.675-1.495-3.045-3.322-3.045zm.531 7.162l-13.953 8.186-13.954-8.186v-2.976l13.954 8.186 13.953-8.186v2.976z" fill="#fff"/></g></a><a xlink:href="https://github.com/romdim" target="_blank"><use fill="#fff" xlink:href="#a" transform="translate(88 1)"/><path d="M118 0c-16.575 0-30 13.628-30 30.454 0 14.311 9.674 26.19 22.726 29.538-.15-.38-.225-.915-.225-1.446v-5.178h-3.75c-2.025 0-3.902-.913-4.726-2.59-.976-1.827-1.126-4.644-3.6-6.396-.751-.61-.151-1.218.674-1.143 1.575.456 2.85 1.524 4.05 3.12 1.2 1.6 1.725 1.98 3.974 1.98 1.05 0 2.7-.075 4.2-.305.825-2.133 2.25-4.036 3.976-4.948-10.05-1.218-14.85-6.244-14.85-13.096 0-2.97 1.274-5.788 3.376-8.224-.674-2.361-1.576-7.234.301-9.136 4.501 0 7.2 2.97 7.874 3.73a22.784 22.784 0 017.274-1.219c2.625 0 5.025.456 7.274 1.218.674-.762 3.375-3.73 7.874-3.73 1.8 1.828.975 6.776.225 9.137 2.101 2.361 3.301 5.253 3.301 8.224 0 6.852-4.726 11.878-14.699 12.943 2.776 1.446 4.726 5.557 4.726 8.602v6.936c0 .228-.074.456-.074.684C139.6 55.045 148 43.778 148 30.454 148 13.628 134.575 0 118 0z"/></a></svg>