<svg xmlns="http://www.w3.org/2000/svg" viewBox="0 0 302 180"><g transform="translate(-94.786 -49)" fill="none" stroke="#000" stroke-linecap="round"><path d="M183.786 221.456c-46.392 0-84-37.729-84-84.27 0-46.54 37.608-84.27 84-84.27 31.063 0 58.189 16.916 72.722 42.067"/><path d="M146.158 136.858c0-22.734 17.994-41.165 40.19-41.165a39.256 39.256 0 0118.37 4.542 39.953 39.953 0 013.884 2.34 40.603 40.603 0 016.165 5.175 41.264 41.264 0 017.469 10.558M185.208 52.917h185.209a21.12 21.12 0 0121.166 21.166 21.12 21.12 0 01-21.166 21.167H256.889"/><rect width="84.667" height="42.333" x="222.25" y="137.583" ry="21.147"/><rect width="84.667" height="41.54" x="222.25" y="179.917" ry="20.77"/><rect width="84.667" height="42.333" x="222.25" y="95.25" ry="21.147"/><path d="M183.786 221.456h64.54"/></g></svg>