<svg xmlns="http://www.w3.org/2000/svg" viewBox="0 0 135 25">
  <g fill="none" fill-rule="evenodd">
    <polyline fill="#FF261F" fill-rule="nonzero" points="34.346 14.653 34.295 14.653 31.05 5.131 27.693 5.131 27.693 18.051 30.252 18.051 30.252 9.213 30.305 9.204 33.461 18.051 35.196 18.051 38.352 9.222 38.406 9.23 38.406 18.051 40.965 18.051 40.965 5.131 37.626 5.131 34.346 14.653"></polyline>
    <polyline fill="#FF261F" fill-rule="nonzero" points="47.671 12.372 52.404 12.372 52.404 10.376 47.671 10.376 47.671 7.127 53.281 7.127 53.281 5.131 45.111 5.131 45.111 18.051 53.298 18.051 53.298 16.063 47.671 16.063 47.671 12.372"></polyline>
    <path fill="#FF261F" fill-rule="nonzero" d="M64.1494506,12.6650769 C64.1494506,13.6584074 63.8923979,14.4731731 63.3782926,15.1093741 C62.8636832,15.745575 62.1857698,16.0629102 61.3440483,16.0629102 L59.450427,16.0629102 L59.450427,7.12752686 L61.3440483,7.12752686 C62.1857698,7.12752686 62.8636832,7.44435186 63.3782926,8.07698148 C63.8923979,8.7101213 64.1494506,9.51978519 64.1494506,10.5080139 L64.1494506,12.6650769 Z M61.3440483,5.13117222 L56.8904848,5.13117222 L56.8904848,18.0511019 L61.3440483,18.0511019 C62.9045093,18.0511019 64.1897726,17.5495898 65.2013505,16.5470759 C66.2119203,15.5440519 66.7179612,14.2502222 66.7179612,12.6650769 L66.7179612,10.5263806 C66.7179612,8.94684722 66.2119203,7.65250741 65.2013505,6.6438713 C64.1897726,5.63523519 62.9045093,5.13117222 61.3440483,5.13117222 L61.3440483,5.13117222 Z"></path>
    <polygon fill="#FF261F" fill-rule="nonzero" points="70.381 18.051 72.942 18.051 72.942 5.13 70.381 5.13"></polygon>
    <path fill="#FF261F" fill-rule="nonzero" d="M80.5751164,13.232913 L81.9954584,8.68104074 L82.047877,8.68104074 L83.4596506,13.232913 L80.5751164,13.232913 Z M80.7157393,5.13066204 L76.4108631,18.0505917 L79.085219,18.0505917 L79.9430692,15.2639602 L84.0816173,15.2639602 L84.9505561,18.0505917 L87.6233999,18.0505917 L83.3366685,5.13066204 L80.7157393,5.13066204 L80.7157393,5.13066204 Z"></path>
    <polyline fill="#FF261F" fill-rule="nonzero" points="99.045 11.201 91.795 11.201 91.795 5.131 90.742 5.131 90.742 18.051 91.795 18.051 91.795 12.105 99.045 12.105 99.045 18.051 100.096 18.051 100.096 5.131 99.045 5.131 99.045 11.201"></polyline>
    <path fill="#FF261F" fill-rule="nonzero" d="M113.078671,13.7119769 C113.078671,14.8297926 112.74551,15.7144537 112.07919,16.3644297 C111.412365,17.0164463 110.559555,17.3414342 109.518743,17.3414342 C108.502125,17.3414342 107.66746,17.0144056 107.015756,16.3603481 C106.364556,15.7073111 106.038452,14.8241806 106.038452,13.7119769 L106.038452,5.13066204 L104.987056,5.13066204 L104.987056,13.7119769 C104.987056,15.1262102 105.408925,16.2328019 106.253166,17.034813 C107.097912,17.8368241 108.186606,18.2378297 109.518743,18.2378297 C110.869026,18.2378297 111.973344,17.8378444 112.832707,17.0394047 C113.691565,16.2409648 114.121498,15.1318222 114.121498,13.7119769 L114.121498,5.13066204 L113.078671,5.13066204 L113.078671,13.7119769"></path>
    <polygon fill="#FF261F" fill-rule="nonzero" points="119.265 18.051 120.317 18.051 120.317 5.13 119.265 5.13"></polygon>
    <path fill="#FF261F" fill-rule="nonzero" d="M132.843501,12.5849778 C132.135346,12.0048972 131.110664,11.5171602 129.76643,11.1207463 C128.47411,10.7544333 127.572409,10.3590398 127.062336,9.93558611 C126.549239,9.51417314 126.293698,8.97286667 126.293698,8.3172787 C126.293698,7.62444722 126.575952,7.04130556 127.14046,6.56428241 C127.70396,6.08827963 128.482174,5.85002315 129.476615,5.85002315 C130.440815,5.85002315 131.22911,6.130625 131.839484,6.69284908 C132.449858,7.25507314 132.755801,7.96167963 132.755801,8.81368889 L133.736633,8.81368889 L133.754778,8.76062963 C133.777963,7.65403797 133.3944,6.74131667 132.605601,6.02195556 C131.816803,5.304125 130.773975,4.94444444 129.476615,4.94444444 C128.243266,4.94444444 127.229672,5.26228981 126.433817,5.89849074 C125.639978,6.53469167 125.242302,7.3463963 125.242302,8.33411481 C125.242302,9.30448703 125.59764,10.0723157 126.307811,10.6376009 C127.016974,11.2018657 128.053753,11.6742972 129.416132,12.0523444 C130.659562,12.4319222 131.543117,12.8364991 132.062263,13.2681157 C132.58292,13.7007528 132.843501,14.2476713 132.843501,14.9104019 C132.843501,15.6261917 132.535542,16.2098436 131.922144,16.662888 C131.308242,17.114912 130.513898,17.3414342 129.53861,17.3414342 C128.585499,17.3414342 127.738234,17.0965453 126.994797,16.6082981 C126.25388,16.1210713 125.882414,15.3777315 125.882414,14.3777685 L124.909142,14.3777685 L124.892005,14.4303176 C124.861764,15.6731287 125.314882,16.6185019 126.250352,17.2659269 C127.185318,17.913862 128.281068,18.2378297 129.53861,18.2378297 C130.794136,18.2378297 131.83646,17.9317186 132.66306,17.3194963 C133.490165,16.7072741 133.90397,15.8976102 133.90397,14.8925454 C133.90397,13.9339074 133.550144,13.1645481 132.843501,12.5849778"></path>
    <polygon fill="#FF261F" fill-rule="nonzero" points="20.456 6.476 10.227 .5 10.227 12.452"></polygon>
    <polyline fill="#EBEBEB" fill-rule="nonzero" points="10.227 12.452 0 6.476 0 18.429 10.227 12.452 20.456 18.429 20.456 6.476 10.227 12.452"></polyline>
    <polyline fill="#FF8A17" fill-rule="nonzero" points="0 6.476 10.227 12.452 10.227 .5 0 6.476"></polyline>
    <polyline fill="#BEBEBE" fill-rule="nonzero" points="0 18.43 10.227 24.405 20.456 18.43 10.227 12.452 0 18.43"></polyline>
  </g>
</svg>
