<svg version="1.0" xmlns="http://www.w3.org/2000/svg" viewBox="0 0 700 700"><g transform="translate(0.000000,700.000000) scale(0.100000,-0.100000)" fill="#000000" stroke="none"><path d="M5855 5693 c-62 -17 -124 -85 -141 -155 -1 -5 -2 -389 -3 -854 l-1 -846 -42 54 c-57 73 -172 185 -255 246 -170 128 -426 237 -608 258 -27 4 -54 9 -58 11 -16 10 -293 11 -372 2 -114 -12 -134 -16 -206 -34 -35 -9 -71 -18 -79 -20 -9 -2 -54 -18 -100 -36 -193 -73 -356 -182 -515 -343 -219 -221 -356 -484 -415 -798 -37 -191 -34 -475 7 -663 8 -38 16 -79 19 -90 2 -12 17 -60 34 -109 127 -367 409 -684 765 -859 50 -24 106 -49 125 -56 19 -7 44 -17 55 -21 24 -10 137 -40 174 -47 149 -27 221 -32 386 -28 188 4 195 5 339 36 396 87 750 347 962 706 76 128 154 323 178 448 4 17 9 41 11 55 3 14 7 39 10 55 3 17 8 48 11 70 10 65 11 2836 1 2876 -12 49 -62 108 -109 129 -37 16 -133 24 -173 13z m-1106 -1677 c30 -4 63 -10 75 -12 12 -2 32 -6 46 -9 95 -17 249 -86 361 -161 213 -143 382 -389 449 -652 29 -117 31 -136 35 -292 3 -131 -2 -192 -29 -337 -19 -102 -114 -304 -192 -409 -105 -140 -253 -265 -401 -338 -79 -39 -199 -80 -263 -91 -25 -4 -54 -9 -65 -12 -44 -10 -264 -11 -330 -2 -248 35 -470 146 -645 321 -214 215 -327 483 -335 798 -9 351 105 649 335 880 176 176 412 292 644 316 33 4 62 7 63 8 6 5 203 -2 252 -8z"/><path d="M2157 4424 c-1 -1 -27 -5 -57 -8 -188 -20 -359 -83 -523 -194 -83 -55 -201 -164 -253 -233 l-39 -50 -5 158 c-6 173 -14 199 -69 246 -17 14 -47 31 -67 37 -46 16 -148 8 -192 -15 -32 -16 -71 -62 -87 -100 -11 -27 -14 -2739 -3 -2790 26 -114 148 -173 284 -136 48 13 103 65 120 113 9 24 13 262 13 913 1 484 4 906 6 938 24 299 242 555 562 660 142 46 235 57 453 51 107 -2 209 -6 225 -9 123 -17 214 55 221 174 8 152 -173 239 -504 245 -46 0 -84 0 -85 0z"/></g></svg>