<?xml version="1.0" encoding="UTF-8"?>
<svg width="18px" height="20px" viewBox="0 0 18 20" version="1.1" xmlns="http://www.w3.org/2000/svg" xmlns:xlink="http://www.w3.org/1999/xlink">
    <!-- Generator: Sketch 60 (88103) - https://sketch.com -->
    <title>Contentful</title>
    <desc>Created with Sketch.</desc>
    <g id="Symbols" stroke="none" stroke-width="1" fill="none" fill-rule="evenodd">
        <g id="Icons---Mobiquity" transform="translate(-23.000000, 0.000000)" fill-rule="nonzero">
            <g id="Contentful" transform="translate(23.000000, 0.000000)">
                <path d="M6.04382803,13.8945737 C4.98460044,12.8976536 4.36152538,11.5268885 4.36152538,9.9692009 C4.36152538,8.41151322 4.98460044,7.0407481 5.98152053,6.04382803 C6.8538256,5.17152296 6.8538256,3.80075783 5.98152053,2.92845275 C5.10921545,2.05614768 3.73845033,2.05614768 2.86614525,2.92845275 C1.1215351,4.73537042 0,7.22767066 0,9.9692009 C0,12.7107311 1.1215351,15.2030313 2.92845275,17.009949 C3.80075783,17.882254 5.17152296,17.882254 6.04382803,17.009949 C6.8538256,16.1376439 6.8538256,14.7668788 6.04382803,13.8945737 Z" id="Path" fill="#FAE501"></path>
                <path d="M6.04382803,6.04382803 C7.0407481,4.98460044 8.41151322,4.36152538 9.9692009,4.36152538 C11.5268885,4.36152538 12.8976536,4.98460044 13.8945737,5.98152053 C14.7668788,6.8538256 16.1376439,6.8538256 17.009949,5.98152053 C17.882254,5.10921545 17.882254,3.73845033 17.009949,2.86614525 C15.2030313,1.1215351 12.7107311,0 9.9692009,0 C7.22767066,0 4.73537042,1.1215351 2.92845275,2.92845275 C2.05614768,3.80075783 2.05614768,5.17152296 2.92845275,6.04382803 C3.80075783,6.8538256 5.17152296,6.8538256 6.04382803,6.04382803 Z" id="Path" fill="#4FB5E1"></path>
                <path d="M13.8945737,13.8945737 C12.8976536,14.9538013 11.5268885,15.5768763 9.9692009,15.5768763 C8.41151322,15.5768763 7.0407481,14.9538013 6.04382803,13.9568812 C5.17152296,13.0845761 3.80075783,13.0845761 2.92845275,13.9568812 C2.05614768,14.8291863 2.05614768,16.1999514 2.92845275,17.0722565 C4.73537042,18.8168666 7.22767066,19.9384017 9.9692009,19.9384017 C12.7107311,19.9384017 15.2030313,18.8168666 17.009949,17.009949 C17.882254,16.1376439 17.882254,14.7668788 17.009949,13.8945737 C16.1376439,13.0845761 14.7668788,13.0845761 13.8945737,13.8945737 Z" id="Path" fill="#F05751"></path>
                <circle id="Oval" fill="#0681B6" cx="4.48614039" cy="4.48614039" r="2.18076269"></circle>
                <circle id="Oval" fill="#CD4739" cx="4.48614039" cy="15.4522614" r="2.18076269"></circle>
            </g>
        </g>
    </g>
</svg>