<?xml version="1.0" encoding="UTF-8"?>
<svg width="87px" height="20px" viewBox="0 0 87 20" version="1.1" xmlns="http://www.w3.org/2000/svg" xmlns:xlink="http://www.w3.org/1999/xlink">
    <!-- Generator: Sketch 60 (88103) - https://sketch.com -->
    <title>Djangocms</title>
    <desc>Created with Sketch.</desc>
    <g id="Symbols" stroke="none" stroke-width="1" fill="none" fill-rule="evenodd">
        <g id="Icons---MyTomorrows" transform="translate(-146.000000, 0.000000)" fill="#000000">
            <g id="Djangocms" transform="translate(146.000000, 0.000000)">
                <path d="M83.9313043,0.51826087 L54.6086957,0.51826087 C52.9669565,0.51826087 51.6356522,1.84956522 51.6356522,3.49130435 L51.6356522,16.5426087 C51.6356522,18.1843478 52.9669565,19.5156522 54.6086957,19.5156522 L83.9313043,19.5156522 C85.5730435,19.5156522 86.9043478,18.1843478 86.9043478,16.5426087 L86.9043478,3.49130435 C86.9043478,1.84956522 85.5730435,0.51826087 83.9313043,0.51826087 Z M62.1321739,14.9382609 C61.7434783,14.9947826 61.3252174,15.0226087 60.8765217,15.0226087 C60.0817391,15.0226087 59.3852174,14.893913 58.7869565,14.6365217 C58.1886957,14.38 57.686087,14.0191304 57.2791304,13.5565217 C56.8721739,13.093913 56.566087,12.5443478 56.3608696,11.9086957 C56.1547826,11.2730435 56.0521739,10.5808696 56.0521739,9.83304348 C56.0521739,9.08521739 56.1591304,8.39130435 56.3747826,7.75043478 C56.5895652,7.11043478 56.9008696,6.55652174 57.3069565,6.08869565 C57.713913,5.62086957 58.213913,5.25652174 58.8078261,4.99478261 C59.4017391,4.73304348 60.0773913,4.60173913 60.833913,4.60173913 C61.2826087,4.60173913 61.6965217,4.62956522 62.0747826,4.68608696 C62.4530435,4.7426087 62.8626087,4.85913043 63.3017391,5.03652174 C63.2826087,5.3173913 63.2269565,5.59043478 63.1330435,5.85652174 C63.0391304,6.1226087 62.9365217,6.39217391 62.8243478,6.6626087 C62.4965217,6.55043478 62.2069565,6.47130435 61.9547826,6.42434783 C61.7026087,6.3773913 61.4026087,6.35391304 61.0565217,6.35391304 C60.1591304,6.35391304 59.4695652,6.64608696 58.9878261,7.23043478 C58.506087,7.81478261 58.2652174,8.68173913 58.2652174,9.83217391 C58.2652174,12.113913 59.2330435,13.253913 61.1678261,13.253913 C61.513913,13.253913 61.8173913,13.2304348 62.0791304,13.1834783 C62.3408696,13.1365217 62.6356522,13.0573913 62.9626087,12.9452174 C63.0843478,13.2069565 63.1852174,13.4756522 63.2643478,13.7513043 C63.3434783,14.0269565 63.4026087,14.3052174 63.44,14.5852174 C62.9573913,14.766087 62.52,14.8826087 62.1321739,14.9382609 Z M73.5695652,14.9382609 C73.2513043,14.9382609 72.9382609,14.9104348 72.6304348,14.853913 L72.3782609,8.01043478 L70.3304348,12.7504348 C70.1991304,12.7695652 70.0643478,12.7852174 69.9234783,12.7991304 C69.7834783,12.8130435 69.6426087,12.82 69.5026087,12.82 C69.3808696,12.82 69.2591304,12.8156522 69.1382609,12.806087 C69.0165217,12.7965217 68.8904348,12.7782609 68.7591304,12.7504348 L66.8521739,7.91217391 L66.6556522,14.853913 C66.3565217,14.9095652 66.0669565,14.9382609 65.786087,14.9382609 C65.4869565,14.9382609 65.1782609,14.9104348 64.8608696,14.853913 L65.2530435,4.77043478 C65.6269565,4.71391304 65.9869565,4.68608696 66.3330435,4.68608696 C66.6973913,4.68608696 67.0573913,4.71391304 67.4130435,4.77043478 L69.7269565,10.5486957 L72.1113043,4.77043478 C72.4008696,4.71391304 72.7234783,4.68608696 73.0791304,4.68608696 C73.433913,4.68608696 73.7756522,4.71391304 74.1026087,4.77043478 L74.58,14.853913 C74.2234783,14.9104348 73.8869565,14.9382609 73.5695652,14.9382609 Z M82.4113043,13.1156522 C82.2382609,13.5086957 81.9878261,13.8452174 81.6608696,14.1252174 C81.333913,14.4052174 80.9295652,14.6252174 80.4478261,14.7843478 C79.966087,14.9434783 79.4121739,15.0226087 78.786087,15.0226087 C78.4773913,15.0226087 78.2017391,15.0130435 77.9582609,14.9947826 C77.7147826,14.9756522 77.4834783,14.946087 77.2643478,14.9034783 C77.0443478,14.8617391 76.8269565,14.8078261 76.6121739,14.7426087 C76.3973913,14.6773913 76.1730435,14.5973913 75.9391304,14.5043478 C75.9669565,14.2330435 76.0182609,13.9504348 76.0930435,13.6556522 C76.1678261,13.3608696 76.2565217,13.0643478 76.36,12.7652174 C76.7530435,12.9243478 77.1217391,13.0434783 77.4678261,13.1226087 C77.813913,13.2017391 78.1834783,13.2417391 78.5756522,13.2417391 C79.1643478,13.2417391 79.6278261,13.1321739 79.9643478,12.9121739 C80.3008696,12.6921739 80.4686957,12.3582609 80.4686957,11.9095652 C80.4686957,11.6852174 80.4286957,11.4982609 80.3495652,11.3486957 C80.2695652,11.1991304 80.1669565,11.0730435 80.0408696,10.9695652 C79.9147826,10.8669565 79.7721739,10.78 79.6130435,10.7104348 C79.453913,10.6408696 79.2904348,10.5721739 79.1226087,10.5069565 L78.2669565,10.1843478 C77.9486957,10.0626087 77.6634783,9.92956522 77.4113043,9.78521739 C77.1591304,9.64 76.9434783,9.46782609 76.766087,9.26608696 C76.5886957,9.06521739 76.4504348,8.82434783 76.3521739,8.54347826 C76.253913,8.2626087 76.2052174,7.92608696 76.2052174,7.53391304 C76.2052174,7.0573913 76.2869565,6.63652174 76.4504348,6.27130435 C76.613913,5.90695652 76.8452174,5.60086957 77.1443478,5.35304348 C77.4434783,5.10521739 77.8034783,4.91826087 78.2243478,4.79217391 C78.6452174,4.66608696 79.1173913,4.6026087 79.6408696,4.6026087 C80.1173913,4.6026087 80.5643478,4.64434783 80.98,4.72869565 C81.3956522,4.81304348 81.8330435,4.93478261 82.2913043,5.09304348 C82.2347826,5.63565217 82.0852174,6.16782609 81.8426087,6.69217391 C81.7026087,6.63565217 81.56,6.58 81.4147826,6.52347826 C81.2695652,6.46695652 81.1156522,6.42086957 80.9521739,6.38347826 C80.7886957,6.34608696 80.6034783,6.31565217 80.3982609,6.29217391 C80.1921739,6.26869565 79.9591304,6.2573913 79.6973913,6.2573913 C79.5382609,6.2573913 79.3765217,6.27130435 79.213913,6.29913043 C79.0504348,6.32695652 78.9034783,6.37826087 78.7721739,6.45304348 C78.6408696,6.52782609 78.533913,6.63826087 78.4495652,6.7826087 C78.3652174,6.92782609 78.3234783,7.1173913 78.3234783,7.35043478 C78.3234783,7.5373913 78.3556522,7.69391304 78.4217391,7.82 C78.4869565,7.94608696 78.5756522,8.05391304 78.6878261,8.1426087 C78.8,8.23130435 78.926087,8.30608696 79.066087,8.36695652 C79.206087,8.42782609 79.3469565,8.48608696 79.4869565,8.5426087 L80.3286957,8.86521739 C80.6834783,9.00521739 81.0069565,9.15043478 81.2965217,9.3 C81.586087,9.44956522 81.8313043,9.63478261 82.0330435,9.85391304 C82.233913,10.073913 82.3904348,10.34 82.5026087,10.6530435 C82.6147826,10.966087 82.6713043,11.3521739 82.6713043,11.8104348 C82.6713043,12.2878261 82.5843478,12.7226087 82.4113043,13.1156522 Z" id="Shape" fill-rule="nonzero"></path>
                <g id="Group" transform="translate(0.000000, 2.608696)">
                    <path d="M6.3626087,0.169565217 C6.48,0.147826087 6.61391304,0.132173913 6.76347826,0.12173913 C6.91304348,0.111304348 7.04173913,0.106086957 7.14869565,0.106086957 C7.26608696,0.106086957 7.3973913,0.111304348 7.54173913,0.12173913 C7.68608696,0.132173913 7.8173913,0.148695652 7.93478261,0.169565217 L7.93478261,11.7095652 C7.52782609,11.8278261 7.07304348,11.926087 6.57043478,12.006087 C6.06695652,12.086087 5.50608696,12.126087 4.88521739,12.126087 C4.30782609,12.126087 3.75913043,12.053913 3.24,11.9095652 C2.72086957,11.7652174 2.26869565,11.5269565 1.88347826,11.1956522 C1.49826087,10.8643478 1.19304348,10.4356522 0.968695652,9.91130435 C0.744347826,9.38695652 0.632173913,8.73913043 0.632173913,7.96956522 C0.632173913,7.30608696 0.731304348,6.70173913 0.928695652,6.15565217 C1.12695652,5.60956522 1.40782609,5.14173913 1.77130435,4.75130435 C2.13478261,4.36086957 2.57130435,4.05826087 3.07913043,3.84434783 C3.58695652,3.63043478 4.15217391,3.52347826 4.77217391,3.52347826 C5.05043478,3.52347826 5.33130435,3.54521739 5.61478261,3.58782609 C5.89826087,3.63043478 6.14695652,3.68434783 6.36086957,3.74869565 L6.3626087,0.169565217 L6.3626087,0.169565217 Z M6.3626087,5.09652174 C6.14869565,5.01130435 5.91826087,4.94695652 5.67217391,4.90434783 C5.42608696,4.86173913 5.15826087,4.84 4.86956522,4.84 C4.43043478,4.84 4.05130435,4.92 3.73043478,5.08086957 C3.40956522,5.24173913 3.14434783,5.46086957 2.93565217,5.73913043 C2.72695652,6.0173913 2.57217391,6.34608696 2.47043478,6.72608696 C2.36869565,7.10608696 2.31826087,7.52086957 2.31826087,7.96956522 C2.32869565,8.98608696 2.56956522,9.71391304 3.04086957,10.1521739 C3.51130435,10.5913043 4.15391304,10.8104348 4.96695652,10.8104348 C5.24521739,10.8104348 5.50173913,10.7973913 5.7373913,10.7704348 C5.97217391,10.7434783 6.18173913,10.7034783 6.36347826,10.6504348 L6.36347826,5.09652174 L6.3626087,5.09652174 Z" id="Shape" fill-rule="nonzero"></path>
                    <path d="M11.0165217,4.95217391 L9.97304348,4.95217391 C9.95130435,4.86695652 9.93565217,4.76782609 9.92434783,4.65565217 C9.91391304,4.54347826 9.90869565,4.43391304 9.90869565,4.32695652 C9.90869565,4.22 9.91391304,4.11043478 9.92434783,3.99826087 C9.93478261,3.88608696 9.95130435,3.78695652 9.97304348,3.70173913 L12.5730435,3.70173913 L12.5730435,12.4 C12.5730435,12.8817391 12.5086957,13.2826087 12.3808696,13.6034783 C12.2530435,13.9243478 12.0730435,14.1843478 11.8434783,14.3817391 C11.6130435,14.58 11.3434783,14.7217391 11.0330435,14.8069565 C10.7226087,14.8921739 10.3852174,14.9356522 10.0217391,14.9356522 C9.44434783,14.9356522 8.9573913,14.866087 8.56086957,14.7269565 C8.57130435,14.5234783 8.59826087,14.3147826 8.64086957,14.1008696 C8.68347826,13.8869565 8.7426087,13.693913 8.8173913,13.5234783 C9.07391304,13.6086957 9.37391304,13.6521739 9.71652174,13.6521739 C9.85565217,13.6521739 10,13.6417391 10.1495652,13.62 C10.2991304,13.5982609 10.4382609,13.5426087 10.5669565,13.4513043 C10.6956522,13.36 10.8026087,13.2243478 10.8878261,13.0417391 C10.9730435,12.86 11.0156522,12.6086957 11.0156522,12.2869565 L11.0165217,4.95217391 L11.0165217,4.95217391 Z M10.6313043,1.87043478 C10.6095652,1.72086957 10.593913,1.57913043 10.5834783,1.44521739 C10.5730435,1.31130435 10.5669565,1.18608696 10.5669565,1.06782609 C10.5669565,0.950434783 10.5721739,0.824347826 10.5834783,0.690434783 C10.593913,0.556521739 10.6095652,0.42 10.6313043,0.280869565 C10.7704348,0.259130435 10.92,0.240869565 11.0808696,0.224347826 C11.2417391,0.208695652 11.38,0.2 11.4982609,0.2 C11.6156522,0.2 11.7521739,0.207826087 11.9078261,0.224347826 C12.0626087,0.24 12.2043478,0.259130435 12.3330435,0.280869565 C12.3547826,0.42 12.3704348,0.556521739 12.3808696,0.690434783 C12.3913043,0.824347826 12.3973913,0.950434783 12.3973913,1.06782609 C12.3973913,1.18521739 12.3921739,1.31130435 12.3808696,1.44521739 C12.3704348,1.57913043 12.353913,1.72086957 12.3330435,1.87043478 C12.2043478,1.89217391 12.0626087,1.91043478 11.9078261,1.92695652 C11.7530435,1.9426087 11.6165217,1.95130435 11.4982609,1.95130435 C11.3808696,1.95130435 11.2417391,1.94347826 11.0808696,1.92695652 C10.92,1.91130435 10.7704348,1.89217391 10.6313043,1.87043478 Z" id="Shape" fill-rule="nonzero"></path>
                    <path d="M19.4913043,6.50956522 C19.4913043,5.87826087 19.3304348,5.44 19.0095652,5.19304348 C18.6886957,4.94695652 18.2226087,4.82347826 17.6130435,4.82347826 C17.2382609,4.82347826 16.8878261,4.85304348 16.5617391,4.91130435 C16.2347826,4.97043478 15.9165217,5.04782609 15.6069565,5.14434783 C15.4034783,4.79130435 15.3017391,4.36869565 15.3017391,3.87652174 C15.6652174,3.75913043 16.0669565,3.66782609 16.5052174,3.60347826 C16.9434783,3.53913043 17.366087,3.50695652 17.7730435,3.50695652 C18.8426087,3.50695652 19.6565217,3.75043478 20.2130435,4.2373913 C20.7695652,4.72434783 21.0478261,5.5026087 21.0478261,6.57304348 L21.0478261,11.7252174 C20.6730435,11.8113043 20.2182609,11.8991304 19.6834783,11.9895652 C19.1486957,12.08 18.6026087,12.126087 18.046087,12.126087 C17.5217391,12.126087 17.0486957,12.0773913 16.626087,11.9817391 C16.2034783,11.8852174 15.8443478,11.7304348 15.5504348,11.5165217 C15.2556522,11.3026087 15.0286957,11.0295652 14.8686957,10.6982609 C14.7078261,10.3669565 14.6278261,9.96521739 14.6278261,9.49478261 C14.6278261,9.03478261 14.7217391,8.63043478 14.9086957,8.2826087 C15.0956522,7.93478261 15.3504348,7.64608696 15.6713043,7.41565217 C15.9921739,7.18608696 16.3617391,7.01478261 16.7791304,6.90173913 C17.1965217,6.78869565 17.6347826,6.73304348 18.0956522,6.73304348 C18.4382609,6.73304348 18.7191304,6.74086957 18.9382609,6.7573913 C19.1573913,6.77304348 19.3417391,6.79217391 19.4921739,6.81391304 L19.4913043,6.50956522 L19.4913043,6.50956522 Z M19.4913043,8.06608696 C19.3304348,8.04434783 19.1269565,8.02347826 18.8817391,8.00173913 C18.6356522,7.98 18.4269565,7.96956522 18.2556522,7.96956522 C17.5921739,7.96956522 17.086087,8.09304348 16.7391304,8.33913043 C16.3913043,8.58521739 16.2173913,8.96 16.2173913,9.4626087 C16.2173913,9.78347826 16.2765217,10.0347826 16.393913,10.2173913 C16.5113043,10.3991304 16.6582609,10.5382609 16.8347826,10.6347826 C17.0113043,10.7313043 17.206087,10.7895652 17.4208696,10.8113043 C17.6347826,10.8330435 17.8382609,10.8434783 18.0304348,10.8434783 C18.2765217,10.8434783 18.5304348,10.8304348 18.7930435,10.8034783 C19.0547826,10.7765217 19.2878261,10.7365217 19.4913043,10.6826087 L19.4913043,8.06608696 L19.4913043,8.06608696 Z" id="Shape" fill-rule="nonzero"></path>
                    <path d="M23.4391304,3.70086957 C23.5565217,3.67913043 23.6721739,3.66347826 23.7843478,3.65304348 C23.8965217,3.6426087 24.0113043,3.6373913 24.1295652,3.6373913 C24.2469565,3.6373913 24.3565217,3.6426087 24.4582609,3.65304348 C24.56,3.66347826 24.6695652,3.68 24.7869565,3.70086957 C24.8191304,3.86173913 24.8513043,4.07826087 24.8834783,4.35043478 C24.9156522,4.62347826 24.9321739,4.85043478 24.9321739,5.03217391 C25.0391304,4.85043478 25.1756522,4.66869565 25.3417391,4.48608696 C25.5078261,4.30434783 25.6973913,4.14086957 25.9113043,3.99652174 C26.1252174,3.85217391 26.3713043,3.73478261 26.6495652,3.64347826 C26.9278261,3.55304348 27.2330435,3.50695652 27.5643478,3.50695652 C28.506087,3.50695652 29.2017391,3.7773913 29.6504348,4.3173913 C30.1,4.8573913 30.3243478,5.6573913 30.3243478,6.71652174 L30.3243478,11.9330435 C30.2069565,11.9547826 30.0730435,11.9704348 29.9234783,11.9808696 C29.773913,11.9913043 29.64,11.9973913 29.5226087,11.9973913 C29.4043478,11.9973913 29.273913,11.9921739 29.1295652,11.9808696 C28.9852174,11.9704348 28.853913,11.953913 28.7365217,11.9330435 L28.7365217,7.15043478 C28.7365217,6.39043478 28.6182609,5.83217391 28.3834783,5.47304348 C28.1478261,5.11478261 27.773913,4.93565217 27.26,4.93565217 C26.96,4.93565217 26.6765217,4.98956522 26.4095652,5.09652174 C26.1417391,5.20347826 25.906087,5.36956522 25.7034783,5.59391304 C25.5,5.81826087 25.3365217,6.11043478 25.213913,6.46869565 C25.0904348,6.82782609 25.0295652,7.2573913 25.0295652,7.76086957 L25.0295652,11.933913 C24.9121739,11.9556522 24.7808696,11.9713043 24.6365217,11.9817391 C24.4921739,11.9921739 24.3608696,11.9982609 24.2434783,11.9982609 C24.126087,11.9982609 23.9921739,11.9930435 23.8426087,11.9817391 C23.6921739,11.9713043 23.5591304,11.9547826 23.4417391,11.933913 L23.4391304,3.70086957 L23.4391304,3.70086957 Z" id="Path"></path>
                    <path d="M37.1295652,10.8747826 C38.0817391,10.8965217 38.7721739,11.0991304 39.2,11.4843478 C39.6278261,11.8695652 39.8417391,12.3991304 39.8417391,13.0730435 C39.8417391,13.5113043 39.7295652,13.9052174 39.5043478,14.2530435 C39.28,14.6008696 38.9695652,14.9 38.5730435,15.1521739 C38.1773913,15.4034783 37.7086957,15.5965217 37.1686957,15.7304348 C36.6286957,15.8643478 36.0426087,15.9313043 35.4113043,15.9313043 C34.3095652,15.9313043 33.4695652,15.76 32.8913043,15.4173913 C32.313913,15.0747826 32.0243478,14.5347826 32.0243478,13.7965217 C32.0243478,13.3573913 32.1417391,12.9643478 32.3773913,12.6165217 C32.6130435,12.2686957 32.9173913,11.9930435 33.2921739,11.7895652 C33.0782609,11.6504348 32.8991304,11.4765217 32.7547826,11.2678261 C32.6104348,11.0591304 32.5382609,10.8 32.5382609,10.4895652 C32.5382609,10.093913 32.626087,9.75130435 32.8026087,9.4626087 C32.9791304,9.17391304 33.2173913,8.91652174 33.5165217,8.69217391 C33.1634783,8.44608696 32.88,8.12782609 32.666087,7.7373913 C32.4521739,7.34695652 32.3452174,6.90521739 32.3452174,6.41304348 C32.3452174,6.00695652 32.42,5.62695652 32.5695652,5.27391304 C32.7191304,4.92086957 32.9356522,4.61304348 33.2191304,4.35130435 C33.5026087,4.08956522 33.8530435,3.88347826 34.2704348,3.73304348 C34.6878261,3.58347826 35.1634783,3.50869565 35.6991304,3.50869565 C36.1808696,3.50869565 36.6165217,3.57826087 37.0069565,3.7173913 C37.3973913,3.85652174 37.7313043,4.03304348 38.0104348,4.24695652 C38.2243478,4.07565217 38.5130435,3.93391304 38.8773913,3.82173913 C39.2408696,3.70956522 39.6426087,3.65304348 40.0808696,3.65304348 C40.1234783,3.85652174 40.1452174,4.08086957 40.1452174,4.32695652 C40.1452174,4.44434783 40.14,4.56782609 40.1295652,4.69652174 C40.1191304,4.82521739 40.1026087,4.95304348 40.0808696,5.08173913 L38.6365217,5.08173913 C38.753913,5.26347826 38.8452174,5.46173913 38.9095652,5.67565217 C38.973913,5.88956522 39.006087,6.13565217 39.006087,6.41391304 C39.006087,6.85304348 38.926087,7.24869565 38.7652174,7.60173913 C38.6043478,7.95478261 38.3773913,8.2573913 38.0826087,8.50869565 C37.7878261,8.76 37.4373913,8.95304348 37.0313043,9.08608696 C36.6243478,9.22 36.1808696,9.28695652 35.6991304,9.28695652 C35.26,9.28695652 34.8643478,9.23913043 34.5113043,9.1426087 C34.3608696,9.22869565 34.213913,9.35913043 34.0695652,9.53565217 C33.9252174,9.71217391 33.8530435,9.9026087 33.8530435,10.1052174 C33.8530435,10.2973913 33.9226087,10.466087 34.0617391,10.6104348 C34.2008696,10.7547826 34.5113043,10.8330435 34.9930435,10.8434783 L37.1295652,10.8747826 Z M34.9626087,12.1426087 C34.4808696,12.1321739 34.12,12.26 33.8791304,12.5278261 C33.6382609,12.7947826 33.5182609,13.1156522 33.5182609,13.4904348 C33.5182609,13.726087 33.5669565,13.9182609 33.6626087,14.0686957 C33.7591304,14.2182609 33.8956522,14.3382609 34.0721739,14.4295652 C34.2486957,14.52 34.4573913,14.5843478 34.6982609,14.6217391 C34.9391304,14.6591304 35.2034783,14.6782609 35.4930435,14.6782609 C36.3486957,14.6782609 37.0173913,14.5365217 37.4991304,14.2530435 C37.9808696,13.9695652 38.2217391,13.613913 38.2217391,13.1852174 C38.2217391,12.8643478 38.12,12.6182609 37.9165217,12.4469565 C37.7130435,12.2756522 37.3391304,12.1843478 36.7930435,12.173913 L34.9626087,12.1426087 Z M35.7017391,8.13043478 C36.2791304,8.13043478 36.7069565,7.97043478 36.9852174,7.64869565 C37.2634783,7.32782609 37.4026087,6.91565217 37.4026087,6.41304348 C37.4026087,5.89913043 37.2634783,5.48 36.9852174,5.15304348 C36.7069565,4.82695652 36.2791304,4.66347826 35.7017391,4.66347826 C35.1243478,4.66347826 34.6982609,4.82695652 34.426087,5.15304348 C34.1530435,5.48 34.0165217,5.89913043 34.0165217,6.41304348 C34.0165217,6.91652174 34.1530435,7.32782609 34.426087,7.64869565 C34.6982609,7.96956522 35.1234783,8.13043478 35.7017391,8.13043478 Z" id="Shape" fill-rule="nonzero"></path>
                    <path d="M44.7695652,12.1269565 C44.1278261,12.1269565 43.566087,12.0173913 43.0843478,11.7982609 C42.6026087,11.5791304 42.2017391,11.2765217 41.8808696,10.8913043 C41.56,10.506087 41.3217391,10.0513043 41.1669565,9.52695652 C41.0121739,9.0026087 40.933913,8.43565217 40.933913,7.82608696 C40.933913,7.21652174 41.0113043,6.64956522 41.1669565,6.12521739 C41.3217391,5.60086957 41.56,5.14608696 41.8808696,4.76086957 C42.2017391,4.37565217 42.6034783,4.07043478 43.0843478,3.84608696 C43.566087,3.62173913 44.1278261,3.50869565 44.7695652,3.50869565 C45.4113043,3.50869565 45.9730435,3.62086957 46.4547826,3.84608696 C46.9365217,4.07043478 47.3373913,4.37565217 47.6582609,4.76086957 C47.9791304,5.14608696 48.2173913,5.60086957 48.3721739,6.12521739 C48.5269565,6.64956522 48.6052174,7.21652174 48.6052174,7.82608696 C48.6052174,8.43565217 48.5278261,9.00347826 48.3721739,9.52695652 C48.2173913,10.0513043 47.9791304,10.506087 47.6582609,10.8913043 C47.3373913,11.2765217 46.9356522,11.5791304 46.4547826,11.7982609 C45.9730435,12.0165217 45.4113043,12.1269565 44.7695652,12.1269565 Z M44.7695652,10.8591304 C45.5078261,10.8591304 46.053913,10.5913043 46.4069565,10.0565217 C46.76,9.52173913 46.9365217,8.77826087 46.9365217,7.82521739 C46.9365217,6.87304348 46.76,6.13217391 46.4069565,5.6026087 C46.053913,5.07304348 45.5078261,4.80782609 44.7695652,4.80782609 C44.0313043,4.80782609 43.4878261,5.07217391 43.1408696,5.6026087 C42.7930435,6.13217391 42.6191304,6.87304348 42.6191304,7.82521739 C42.6191304,8.7773913 42.7930435,9.52173913 43.1408696,10.0565217 C43.4878261,10.5913043 44.0313043,10.8591304 44.7695652,10.8591304 Z" id="Shape" fill-rule="nonzero"></path>
                </g>
            </g>
        </g>
    </g>
</svg>