<svg xmlns="http://www.w3.org/2000/svg" height="29" width="157"><path d="M73.5 22.921V4.538h2.93v18.383H73.5zm46.41 0V4.538h2.92v18.383h-2.92zm-78.183-2.689c3.503 0 6.363-2.864 6.363-6.385 0-3.52-2.86-6.384-6.363-6.384-3.506 0-6.359 2.864-6.359 6.384 0 3.521 2.853 6.385 6.359 6.385zm0-15.706c5.123 0 9.283 4.173 9.283 9.321 0 5.149-4.16 9.323-9.283 9.323-5.128 0-9.284-4.174-9.284-9.323 0-5.148 4.156-9.321 9.284-9.321zM53.89 0h2.93v4.787h4.52c4.99 0 9.03 4.06 9.03 9.067 0 5.008-4.04 9.067-9.03 9.067h-7.45V0zm7.45 19.984c3.37 0 6.11-2.75 6.11-6.13s-2.74-6.13-6.11-6.13h-4.52v12.26h4.52zM75.11 0a1.47 1.47 0 01-.14 2.93A1.47 1.47 0 0174.82 0h.29zm46.41 0c.74.074 1.31.7 1.31 1.461 0 .811-.65 1.469-1.46 1.469s-1.46-.658-1.46-1.469c0-.761.58-1.387 1.32-1.461h.29zm7.82 17.329a2.654 2.654 0 002.64 2.655h4.16v2.937h-4.16c-3.07 0-5.57-2.504-5.57-5.592V.085h2.93v4.729h6.21v2.937h-6.21v9.578zM93.2 19.984V7.743h-4.94c-3.2.186-5.75 2.852-5.75 6.111 0 3.38 2.74 6.13 6.11 6.13h4.58zm-13.61-6.13c0-4.901 3.87-8.884 8.71-9.051h7.83v24.194H93.2v-6.076h-4.9v-.016c-4.84-.167-8.71-4.15-8.71-9.051zm74.04-9.039H157L143.21 29h-3.37l5.12-8.987-6.78-15.198h3.21l5.37 12.044 6.87-12.044zM0 12.207c.223-4.256 3.76-7.669 8.052-7.669 2.749 0 5.186 1.402 6.643 3.527 1.457-2.125 3.894-3.527 6.643-3.527 4.434 0 8.062 3.644 8.062 8.095v10.288h-2.925V12.633c0-2.844-2.305-5.157-5.137-5.157-2.833 0-5.137 2.313-5.137 5.157v10.288h-3.013V12.633c0-2.844-2.304-5.157-5.136-5.157-2.833 0-5.138 2.313-5.138 5.157v10.288H0V12.207zm113.1-7.393v-.009h2.92v18.116h-2.92V21.3a8.006 8.006 0 01-5.14 1.869c-2.75 0-5.19-1.401-6.64-3.527a8 8 0 01-1.42-4.568V4.806h2.92v10.268c0 2.844 2.31 5.158 5.14 5.158s5.14-2.314 5.14-5.158V4.814z" fill="#fff" fill-rule="evenodd"/></svg>