<svg width="231" height="37" xmlns="http://www.w3.org/2000/svg" class="ng-tns-c53-0"><g fill="#EAEBE5" class="ng-tns-c53-0"><path d="M43.29 27.62l-1.18-5.22c-.915.967-1.905 1.431-2.934 1.431-.571 0-1.066-.154-1.485-.502-.42-.349-.648-.928-.648-1.74v-6.611h5.98V9.024h-5.98V2.212h-2.117l-5.628 11.142v1.624h2.146v7.925c0 2.05.533 3.711 1.638 4.988 1.104 1.275 2.78 1.932 5.028 1.932 1.18 0 2.21-.193 3.085-.618.876-.425 1.562-.967 2.057-1.624l.038.039zM29.203 2.246h-1.075l-3.426 6.75-4.165-6.75h-1.142l4.792 7.75-2.68 4.985h1.097l6.599-12.735zm-11.122 9.85V5.96c0-2.83-1.54-3.85-3.258-3.85-2.008 0-3.147 1.404-3.481 2.83-.268-1.947-1.54-2.83-3.102-2.83-1.986 0-3.013 1.45-3.303 2.786v-2.56H4v9.762h.937V7.159c0-2.174 1.027-4.167 3.124-4.167 1.25 0 2.522.725 2.522 3.601v5.504h.937V7.159c0-2.174 1.004-4.167 3.08-4.167 1.36 0 2.544.86 2.544 3.216v5.889h.937zm36.427 18.271c6.882 0 11.004-4.852 11.004-10.624S61.39 9.119 54.508 9.119s-11.045 4.852-11.045 10.624 4.163 10.624 11.045 10.624zm-.041-5.48c-2.844 0-4.698-2.3-4.698-5.144 0-2.802 1.854-5.145 4.698-5.145 2.885 0 4.78 2.343 4.78 5.145 0 2.844-1.895 5.145-4.78 5.145zm44.014 4.936V17.401c0-4.057-1.195-8.24-6.717-8.24-3.545 0-5.482 1.715-6.47 3.639-.866-2.217-2.885-3.639-5.853-3.639-3.173 0-5.028 1.631-5.893 3.43V9.663h-6.1v20.16h6.1v-9.996c0-3.974 1.484-5.229 3.38-5.229 2.142 0 3.008 1.59 3.008 4.309v10.916h6.1V19.701c0-3.89 1.442-5.103 3.337-5.103 2.143 0 3.05 1.632 3.05 4.35v10.875h6.058zm12.775.544c6.883 0 11.004-4.852 11.004-10.624S118.14 9.119 111.256 9.119c-6.882 0-11.044 4.852-11.044 10.624s4.162 10.624 11.044 10.624zm-.04-5.48c-2.844 0-4.699-2.3-4.699-5.144 0-2.802 1.855-5.145 4.698-5.145 2.885 0 4.78 2.343 4.78 5.145 0 2.844-1.895 5.145-4.78 5.145zm27.24-15.224c-.577-.251-1.154-.335-1.813-.335-2.885 0-5.234 1.715-6.14 3.597V9.663h-6.306v20.16h6.306V21.96c0-4.978 2.266-6.776 5.81-6.776.742 0 1.278.084 2.143.293V9.663zm16.256 0c-.577-.251-1.154-.335-1.813-.335-2.885 0-5.235 1.715-6.141 3.597V9.663h-6.306v20.16h6.306V21.96c0-4.978 2.266-6.776 5.81-6.776.743 0 1.278.084 2.144.293V9.663zm11.25 20.704c6.883 0 11.004-4.852 11.004-10.624s-4.121-10.624-11.004-10.624c-6.882 0-11.044 4.852-11.044 10.624s4.162 10.624 11.044 10.624zm-.04-5.48c-2.844 0-4.699-2.3-4.699-5.144 0-2.802 1.855-5.145 4.698-5.145 2.885 0 4.781 2.343 4.781 5.145 0 2.844-1.896 5.145-4.78 5.145zm30.62 4.936h5.11l7.419-20.16h-6.512l-3.668 12.004-3.503-12.004h-5.81l-3.504 12.004-3.667-12.004h-6.512l7.418 20.16h5.11l4.08-12.84 4.04 12.84zm23.532-11.878c-3.338-1.13-5.069-1.38-5.069-2.886 0-1.172 1.072-1.757 2.39-1.757 1.69 0 2.555.962 2.555 2.635h6.224c0-3.848-2.68-6.818-8.82-6.818-5.028 0-8.53 1.966-8.53 6.19 0 3.723 2.719 4.769 6.14 5.856 3.75 1.213 5.316 1.464 5.316 3.012 0 1.338-1.072 1.882-2.596 1.882-1.855 0-3.174-.836-3.174-2.97h-6.181c0 4.685 3.42 7.278 9.272 7.278 4.74 0 8.861-1.715 8.861-6.441 0-3.974-2.885-4.936-6.388-5.981z" class="ng-tns-c53-0"/></g></svg>