
<svg width="60px" height="60px" viewBox="0 0 60 60" version="1.1" xmlns="http://www.w3.org/2000/svg" xmlns:xlink="http://www.w3.org/1999/xlink">
    <g id="Page-1" stroke="none" stroke-width="1" fill="none" fill-rule="evenodd">
        <g id="LANDING-PAGE" transform="translate(-1131.000000, -1258.000000)" fill="#000000">
            <g id="Contact" transform="translate(1131.000000, 1114.000000)">
                <g id="github" transform="translate(0.000000, 144.000000)">
                    <g id="Path">
                        <path d="M30,0 C13.4246809,0 0,13.6276458 0,30.4535637 C0,44.7654428 9.67404255,56.6436285 22.7259574,59.9922246 C22.5753191,59.6112311 22.5012766,59.0773218 22.5012766,58.5460043 L22.5012766,53.3676026 L18.7506383,53.3676026 C16.7259574,53.3676026 14.8493617,52.4552916 14.0246809,50.7784017 C13.0493617,48.9511879 12.8987234,46.1339093 10.4246809,44.3818575 C9.67404255,43.7727862 10.2740426,43.1637149 11.0987234,43.2388769 C12.6740426,43.6950324 13.9480851,44.762851 15.1480851,46.3593952 C16.3480851,47.9585313 16.8740426,48.3395248 19.1234043,48.3395248 C20.172766,48.3395248 21.8221277,48.2643629 23.3234043,48.0336933 C24.1480851,45.9006479 25.572766,43.9982721 27.2987234,43.0859611 C17.2493617,41.8678186 12.4493617,36.8423326 12.4493617,29.9896328 C12.4493617,27.0194384 13.7234043,24.2021598 15.8246809,21.7658747 C15.1506383,19.4047516 14.2493617,14.5321814 16.1259574,12.6298056 C20.627234,12.6298056 23.3259574,15.6 24,16.3593952 C26.2493617,15.5974082 28.7259574,15.1412527 31.2740426,15.1412527 C33.8987234,15.1412527 36.2987234,15.5974082 38.5480851,16.3593952 C39.2221277,15.5974082 41.9234043,12.6298056 46.4221277,12.6298056 C48.2221277,14.4570194 47.3974468,19.4047516 46.6468085,21.7658747 C48.7480851,24.1269978 49.9480851,27.0194384 49.9480851,29.9896328 C49.9480851,36.8423326 45.2221277,41.8678186 35.2493617,42.9330454 C38.0246809,44.3792657 39.9753191,48.4898488 39.9753191,51.5352052 L39.9753191,58.4708423 C39.9753191,58.6989201 39.9012766,58.9269978 39.9012766,59.1550756 C51.6,55.0444924 60,43.7779698 60,30.4535637 C60,13.6276458 46.5753191,0 30,0 Z"></path>
                    </g>
                </g>
            </g>
        </g>
    </g>
</svg>