
<svg width="60px" height="60px" viewBox="0 0 60 60" version="1.1" xmlns="http://www.w3.org/2000/svg" xmlns:xlink="http://www.w3.org/1999/xlink">
    <defs>
        <circle id="path-1" cx="30" cy="30" r="30"></circle>
    </defs>
    <g id="Page-1" stroke="none" stroke-width="1" fill="none" fill-rule="evenodd">
        <g id="LANDING-PAGE" transform="translate(-1131.000000, -1114.000000)">
            <g id="Contact" transform="translate(1131.000000, 1114.000000)">
                <g id="linkedin">
                    <g>
                        <mask id="mask-2" fill="white">
                            <use xlink:href="#path-1"></use>
                        </mask>
                        <use id="Mask" fill="#000000" xlink:href="#path-1"></use>
                        <circle id="Oval" fill="#FFFFFF" mask="url(#mask-2)" cx="30.6976744" cy="29.3023256" r="22.3255814"></circle>
                        <g id="logo/linkedin" mask="url(#mask-2)">
                            <g transform="translate(6.976744, 4.186047)">
                                <g>
                                    <path d="M43.6366279,0 L4.05232558,0 C1.89026163,0 0,1.55668605 0,3.6940407 L0,43.3648256 C0,45.5145349 1.89026163,47.4295058 4.05232558,47.4295058 L43.6242733,47.4295058 C45.7986919,47.4295058 47.4295058,45.5021802 47.4295058,43.3648256 L47.4295058,3.6940407 C47.4418605,1.55668605 45.7986919,0 43.6366279,0 Z M14.7020349,39.5348837 L7.90697674,39.5348837 L7.90697674,18.4084302 L14.7020349,18.4084302 L14.7020349,39.5348837 Z M11.5392442,15.1962209 L11.4898256,15.1962209 C9.31540698,15.1962209 7.90697674,13.5777616 7.90697674,11.5515988 C7.90697674,9.48837209 9.35247093,7.90697674 11.5763081,7.90697674 C13.8001453,7.90697674 15.159157,9.47601744 15.2085756,11.5515988 C15.2085756,13.5777616 13.8001453,15.1962209 11.5392442,15.1962209 Z M39.5348837,39.5348837 L32.7398256,39.5348837 L32.7398256,27.9832849 C32.7398256,25.215843 31.7514535,23.3255814 29.2928779,23.3255814 C27.4149709,23.3255814 26.3030523,24.5981105 25.8088663,25.8335756 C25.6235465,26.278343 25.5741279,26.8837209 25.5741279,27.5014535 L25.5741279,39.5348837 L18.7790698,39.5348837 L18.7790698,18.4084302 L25.5741279,18.4084302 L25.5741279,21.3488372 C26.5625,19.940407 28.1068314,17.9142442 31.7020349,17.9142442 C36.162064,17.9142442 39.5348837,20.8546512 39.5348837,27.1925872 L39.5348837,39.5348837 Z" id="Shape" fill="#000000" fill-rule="nonzero"></path>
                                </g>
                            </g>
                        </g>
                    </g>
                </g>
            </g>
        </g>
    </g>
</svg>