
<svg width="580px" height="450px" viewBox="0 0 580 450" version="1.1" xmlns="http://www.w3.org/2000/svg" xmlns:xlink="http://www.w3.org/1999/xlink">
    <defs>
        <path d="M44.6457726,111.61641 C49.4447509,105.012495 55.316798,99.6617227 62.2620262,95.563981 C70.7788327,90.5389954 80.2368285,88.0265403 90.6362974,88.0265403 C98.884152,88.0265403 105.249249,89.1930373 109.731778,91.5260664 C114.214308,93.8590954 115.917644,97.2688559 114.841837,101.75545 C114.124632,104.447407 112.914367,106.242018 111.211006,107.139336 C109.507645,108.036655 107.445712,108.395578 105.025146,108.216114 C102.60458,108.03665 99.8702776,107.857189 96.8221574,107.677725 C86.7812909,106.780406 77.8611906,107.812307 70.0615889,110.77346 C62.2619872,113.734612 56.076189,118.266004 51.5040087,124.367773 C46.9318285,130.469541 44.6457726,137.737715 44.6457726,146.172512 L44.6457726,226.661611 C44.6457726,229.891959 43.7492801,232.404414 41.9562682,234.199052 C40.1632563,235.99369 37.6530774,236.890995 34.425656,236.890995 C31.1982346,236.890995 28.6880556,235.99369 26.8950437,234.199052 C25.1020319,232.404414 24.2055394,229.891959 24.2055394,226.661611 L24.2055394,99.87109 C24.2055394,96.6407421 25.1020319,94.128287 26.8950437,92.3336493 C28.6880556,90.5390116 31.1982346,89.6417062 34.425656,89.6417062 C37.6530774,89.6417062 40.1632563,90.5390116 41.9562682,92.3336493 C43.7492801,94.128287 44.6457726,96.6407421 44.6457726,99.87109 L44.6457726,111.61641 Z M203.595481,238.236967 C189.251386,238.236967 176.431543,235.006667 165.135569,228.545972 C153.839594,222.085276 144.964318,213.201952 138.509475,201.895735 C132.054632,190.589517 128.827259,177.75805 128.827259,163.400948 C128.827259,148.864382 132.054632,135.943184 138.509475,124.636967 C144.964318,113.330749 153.839594,104.447426 165.135569,97.9867299 C176.431543,91.526034 189.251386,88.2957346 203.595481,88.2957346 C217.939576,88.2957346 230.714594,91.526034 241.920918,97.9867299 C253.127243,104.447426 261.957694,113.330749 268.412536,124.636967 C274.867379,135.943184 278.184401,148.864382 278.363703,163.400948 C278.363703,177.75805 275.091505,190.589517 268.547012,201.895735 C262.002518,213.201952 253.127243,222.085276 241.920918,228.545972 C230.714594,235.006667 217.939576,238.236967 203.595481,238.236967 Z M433.812031,148.131671 C433.812776,148.205711 433.813438,148.27981 433.814018,148.353967 C433.814877,148.434294 433.815889,148.514725 433.817055,148.595261 C433.816573,148.774383 433.817055,148.953846 433.817055,149.133649 L433.817055,226.661611 C433.817055,229.712496 432.875738,232.180085 430.993076,234.064455 C429.110413,235.948825 426.645059,236.890995 423.596939,236.890995 C420.548819,236.890995 418.03864,235.948825 416.066327,234.064455 C414.094013,232.180085 413.107872,229.712496 413.107872,226.661611 L413.107872,149.133649 C413.107872,136.391721 409.790849,126.297036 403.156706,118.849289 C396.522562,111.401543 388.005883,107.677725 377.606414,107.677725 C366.48974,107.677725 357.345517,111.311812 350.173469,118.580095 C343.001422,125.848378 339.415452,135.31495 339.415452,146.980095 L339.415452,226.661611 C339.415452,229.712496 338.474135,232.180085 336.591472,234.064455 C334.70881,235.948825 332.243455,236.890995 329.195335,236.890995 C325.967914,236.890995 323.41291,235.948825 321.530248,234.064455 C319.647585,232.180085 318.706268,229.712496 318.706268,226.661611 L318.706268,100.140284 C318.706268,97.0894002 319.647585,94.5769451 321.530248,92.6028436 C323.41291,90.6287421 325.967914,89.6417062 329.195335,89.6417062 C332.243455,89.6417062 334.70881,90.6287421 336.591472,92.6028436 C338.474135,94.5769451 339.415452,97.0894002 339.415452,100.140284 L339.415452,106.004647 C342.974344,101.900912 347.098239,98.4207024 351.787172,95.563981 C360.035027,90.5389954 369.358549,88.0265403 379.758017,88.0265403 C390.336788,88.0265403 399.705134,90.5389954 407.863338,95.563981 C414.968115,99.9401162 420.712958,105.88143 425.097991,113.388064 C429.893559,105.88143 436.116923,99.9401162 443.768222,95.563981 C452.55398,90.5389954 462.505046,88.0265403 473.62172,88.0265403 C484.20049,88.0265403 493.568837,90.5389954 501.727041,95.563981 C509.885245,100.588967 516.250342,107.677679 520.822522,116.830332 C525.394702,125.982984 527.680758,136.750649 527.680758,149.133649 L527.680758,226.661611 C527.680758,229.712496 526.739441,232.180085 524.856778,234.064455 C522.974116,235.948825 520.508762,236.890995 517.460641,236.890995 C514.412521,236.890995 511.902342,235.948825 509.930029,234.064455 C507.957716,232.180085 506.971574,229.712496 506.971574,226.661611 L506.971574,149.133649 C506.971574,136.391721 503.654552,126.297036 497.020408,118.849289 C490.386264,111.401543 481.869586,107.677725 471.470117,107.677725 C460.353443,107.677725 451.254044,111.401543 444.171647,118.849289 C437.177854,126.203861 433.724682,135.96456 433.812031,148.131671 Z M203.595481,219.393365 C193.196012,219.393365 183.87249,216.97064 175.624636,212.125118 C167.376781,207.279597 160.87721,200.639537 156.125729,192.204739 C151.374247,183.769942 148.998542,174.168774 148.998542,163.400948 C148.998542,152.633122 151.374247,142.987088 156.125729,134.462559 C160.87721,125.93803 167.376781,119.253105 175.624636,114.407583 C183.87249,109.562061 193.196012,107.139336 203.595481,107.139336 C213.99495,107.139336 223.318472,109.562061 231.566327,114.407583 C239.814181,119.253105 246.268927,125.93803 250.930758,134.462559 C255.592589,142.987088 257.923469,152.633122 257.923469,163.400948 C257.923469,174.168774 255.592589,183.769942 250.930758,192.204739 C246.268927,200.639537 239.814181,207.279597 231.566327,212.125118 C223.318472,216.97064 213.99495,219.393365 203.595481,219.393365 Z M91.1741983,537.939968 C77.0094044,537.939968 64.279211,534.664804 52.9832362,528.114376 C41.6872613,521.563948 32.767161,512.63576 26.2226676,501.329542 C19.6781743,490.023324 16.4059767,477.191857 16.4059767,462.834755 C16.4059767,448.657117 19.588525,435.91538 25.9537172,424.609163 C32.3189094,413.302945 40.9700619,404.374756 51.9074344,397.824329 C62.8448069,391.273901 75.2164033,387.998736 89.0225948,387.998736 C101.035774,387.998736 111.883334,390.556057 121.565598,395.670774 C131.247862,400.785492 139.047347,407.560147 144.964286,415.994945 L144.964286,336.851817 C144.964286,333.621469 145.950427,331.064148 147.922741,329.179779 C149.895054,327.295409 152.405233,326.353239 155.453353,326.353239 C158.501473,326.353239 161.011652,327.295409 162.983965,329.179779 C164.956278,331.064148 165.94242,333.621469 165.94242,336.851817 L165.94242,463.911532 C165.583817,477.909707 162.132321,490.516848 155.587828,501.733333 C149.043335,512.949819 140.168059,521.788277 128.961735,528.248973 C117.75541,534.709669 105.159691,537.939968 91.1741983,537.939968 Z M91.1741983,519.096367 C101.573667,519.096367 110.852364,516.628777 119.010569,511.693523 C127.168773,506.758269 133.623519,500.073344 138.375,491.638547 C143.126481,483.203749 145.502187,473.602581 145.502187,462.834755 C145.502187,452.246393 143.126481,442.69009 138.375,434.165561 C133.623519,425.641032 127.168773,418.956106 119.010569,414.110585 C110.852364,409.265063 101.573667,406.842338 91.1741983,406.842338 C80.9540305,406.842338 71.7201579,409.265063 63.4723032,414.110585 C55.2244486,418.956106 48.6800534,425.641032 43.8389213,434.165561 C38.9977892,442.69009 36.5772595,452.246393 36.5772595,462.834755 C36.5772595,473.602581 38.9977892,483.203749 43.8389213,491.638547 C48.6800534,500.073344 55.2244486,506.758269 63.4723032,511.693523 C71.7201579,516.628777 80.9540305,519.096367 91.1741983,519.096367 Z M229.145773,536.593997 C225.918351,536.593997 223.363348,535.651826 221.480685,533.767457 C219.598023,531.883087 218.656706,529.325767 218.656706,526.095419 L218.656706,399.843286 C218.656706,396.612938 219.598023,394.055618 221.480685,392.171248 C223.363348,390.286878 225.918351,389.344708 229.145773,389.344708 C232.193893,389.344708 234.659247,390.286878 236.54191,392.171248 C238.424572,394.055618 239.365889,396.612938 239.365889,399.843286 L239.365889,526.095419 C239.365889,529.325767 238.424572,531.883087 236.54191,533.767457 C234.659247,535.651826 232.193893,536.593997 229.145773,536.593997 Z M228.876822,361.348499 C224.932196,361.348499 221.525525,359.912811 218.656706,357.04139 C215.787887,354.16997 214.353499,350.670479 214.353499,346.542812 C214.353499,342.056218 215.832711,338.511861 218.791181,335.909637 C221.74965,333.307412 225.201146,332.006319 229.145773,332.006319 C232.911098,332.006319 236.272944,333.307412 239.231414,335.909637 C242.189884,338.511861 243.669096,342.056218 243.669096,346.542812 C243.669096,350.670479 242.234708,354.16997 239.365889,357.04139 C236.49707,359.912811 233.000749,361.348499 228.876822,361.348499 Z M407.185937,447.834673 C407.186683,447.908713 407.187345,447.982811 407.187924,448.056968 C407.188783,448.137295 407.189796,448.217727 407.190962,448.298262 C407.19048,448.477384 407.190962,448.656847 407.190962,448.836651 L407.190962,526.364613 C407.190962,529.415497 406.249645,531.883087 404.366983,533.767457 C402.48432,535.651826 400.018966,536.593997 396.970845,536.593997 C393.922725,536.593997 391.412546,535.651826 389.440233,533.767457 C387.46792,531.883087 386.481778,529.415497 386.481778,526.364613 L386.481778,448.836651 C386.481778,436.094723 383.164756,426.000037 376.530612,418.552291 C369.896468,411.104544 361.37979,407.380727 350.980321,407.380727 C339.863647,407.380727 330.719424,411.014814 323.547376,418.283096 C316.375329,425.551379 312.789359,435.017951 312.789359,446.683096 L312.789359,526.364613 C312.789359,529.415497 311.848041,531.883087 309.965379,533.767457 C308.082717,535.651826 305.617362,536.593997 302.569242,536.593997 C299.341821,536.593997 296.786817,535.651826 294.904155,533.767457 C293.021492,531.883087 292.080175,529.415497 292.080175,526.364613 L292.080175,399.843286 C292.080175,396.792402 293.021492,394.279947 294.904155,392.305845 C296.786817,390.331744 299.341821,389.344708 302.569242,389.344708 C305.617362,389.344708 308.082717,390.331744 309.965379,392.305845 C311.848041,394.279947 312.789359,396.792402 312.789359,399.843286 L312.789359,405.707648 C316.348251,401.603913 320.472145,398.123704 325.161079,395.266983 C333.408933,390.241997 342.732455,387.729542 353.131924,387.729542 C363.710694,387.729542 373.079041,390.241997 381.237245,395.266983 C388.342022,399.643118 394.086864,405.584432 398.471898,413.091066 C403.267465,405.584432 409.49083,399.643118 417.142128,395.266983 C425.927886,390.241997 435.878953,387.729542 446.995627,387.729542 C457.574397,387.729542 466.942743,390.241997 475.100948,395.266983 C483.259152,400.291968 489.624248,407.380681 494.196429,416.533333 C498.768609,425.685986 501.054665,436.453651 501.054665,448.836651 L501.054665,526.364613 C501.054665,529.415497 500.113348,531.883087 498.230685,533.767457 C496.348023,535.651826 493.882668,536.593997 490.834548,536.593997 C487.786428,536.593997 485.276249,535.651826 483.303936,533.767457 C481.331623,531.883087 480.345481,529.415497 480.345481,526.364613 L480.345481,448.836651 C480.345481,436.094723 477.028459,426.000037 470.394315,418.552291 C463.760171,411.104544 455.243492,407.380727 444.844023,407.380727 C433.72735,407.380727 424.627951,411.104544 417.545554,418.552291 C410.551761,425.906863 407.098588,435.667562 407.185937,447.834673 Z M529.02551,536.593997 C528.457723,536.593997 527.987065,536.436968 527.61352,536.122907 C527.239976,535.808845 527.053207,535.382625 527.053207,534.844234 L527.053207,503.303633 C527.053207,502.795153 527.217564,502.37641 527.546283,502.047393 C527.875002,501.718376 528.293365,501.55387 528.801385,501.55387 L539.693878,501.55387 C541.486889,501.55387 543.108047,501.935225 544.557398,502.697946 C546.006749,503.460667 547.157248,504.500046 548.008929,505.816114 C548.860609,507.132181 549.286443,508.657601 549.286443,510.392417 C549.286443,512.007591 548.853138,513.44328 547.986516,514.699526 C547.119894,515.955772 545.984336,516.912898 544.57981,517.570932 C546.582007,518.109323 548.195694,519.118792 549.420918,520.599368 C550.646143,522.079944 551.258746,523.956808 551.258746,526.230016 C551.258746,528.263939 550.795559,530.058549 549.869169,531.613902 C548.94278,533.169255 547.665278,534.388095 546.036625,535.270458 C544.407973,536.152822 542.547751,536.593997 540.455904,536.593997 L529.02551,536.593997 Z M530.549563,533.229068 L540.455904,533.229068 C541.890313,533.229068 543.160344,532.944921 544.266035,532.376619 C545.371726,531.808317 546.238335,531.000742 546.865889,529.95387 C547.493443,528.906998 547.807216,527.665726 547.807216,526.230016 C547.807216,524.884038 547.493443,523.710063 546.865889,522.708057 C546.238335,521.706051 545.371726,520.928386 544.266035,520.375039 C543.160344,519.821693 541.890313,519.545024 540.455904,519.545024 L530.549563,519.545024 L530.549563,533.229068 Z M530.549563,516.180095 L539.693878,516.180095 C541.486889,516.180095 542.966102,515.671622 544.13156,514.65466 C545.297017,513.637699 545.879738,512.216965 545.879738,510.392417 C545.879738,508.597779 545.297017,507.236866 544.13156,506.309637 C542.966102,505.382407 541.486889,504.918799 539.693878,504.918799 L530.549563,504.918799 L530.549563,516.180095 Z M558.565233,537.311848 C557.848028,537.311848 557.235425,537.057612 556.727405,536.549131 C556.219385,536.04065 555.965379,535.427492 555.965379,534.709637 C555.965379,533.961871 556.226856,533.333757 556.749818,532.825276 C557.27278,532.316796 557.877912,532.062559 558.565233,532.062559 C559.282438,532.062559 559.895041,532.324273 560.403061,532.847709 C560.911081,533.371145 561.165087,533.991782 561.165087,534.709637 C561.165087,535.397581 560.918552,536.003262 560.425474,536.526698 C559.932395,537.050134 559.312322,537.311848 558.565233,537.311848 Z M579.498396,531.106373 L591.332362,502.765245 C591.511663,502.316585 591.735786,502.002529 592.004738,501.823065 C592.273689,501.643601 592.632286,501.55387 593.080539,501.55387 C593.767861,501.55387 594.231048,501.815585 594.470117,502.339021 C594.709185,502.862457 594.694243,503.453183 594.425292,504.111216 L581.06742,535.472354 C580.888119,535.891103 580.663996,536.182727 580.395044,536.347235 C580.126092,536.511744 579.827261,536.593997 579.498542,536.593997 C578.751454,536.593997 578.213558,536.22012 577.88484,535.472354 L564.571793,504.290679 C564.243074,503.453182 564.220662,502.78768 564.504555,502.294155 C564.788449,501.800629 565.288991,501.55387 566.006195,501.55387 C566.753284,501.55387 567.291179,501.927748 567.619898,502.675513 L579.498396,531.106373 Z M593.17019,537.311848 C592.452985,537.311848 591.840382,537.057612 591.332362,536.549131 C590.824341,536.04065 590.570335,535.427492 590.570335,534.709637 C590.570335,533.961871 590.831812,533.333757 591.354774,532.825276 C591.877736,532.316796 592.482868,532.062559 593.17019,532.062559 C593.887394,532.062559 594.499997,532.324273 595.008017,532.847709 C595.516038,533.371145 595.770044,533.991782 595.770044,534.709637 C595.770044,535.397581 595.523508,536.003262 595.03043,536.526698 C594.537352,537.050134 593.917278,537.311848 593.17019,537.311848 Z" id="path-1"></path>
    </defs>
    <g id="Page-1" stroke="none" stroke-width="1" fill="none" fill-rule="evenodd">
        <g id="LANDING-PAGE" transform="translate(-441.000000, -486.000000)">
            <g id="romdim" transform="translate(425.000000, 398.000000)">
                <g id="logo">
                    <use fill="#000000" xlink:href="#path-1"></use>
                    <use fill="#0C0C0C" xlink:href="#path-1"></use>
                </g>
            </g>
        </g>
    </g>
</svg>